<svg id="e4IbMVoRswy1" xmlns="http://www.w3.org/2000/svg" xmlns:xlink="http://www.w3.org/1999/xlink" viewBox="0 0 758 237" shape-rendering="geometricPrecision" text-rendering="geometricPrecision" project-id="d7186f13f0714511b6604c1285764be6" export-id="26ac00d56d6145f2855b01d3a5e6ec60" cached="false"><g transform="translate(0 0.000001)"><g transform="translate(0 0.000001)"><path d="M142.369453,90.730134q0,17.209495,0,17.991744h14.862745l.131956,124.036267l22.267776-.218312.754456-123.266079l14.458201.267744-.168612-22.344578-52.812952.273641" transform="translate(.000003 0.000002)" fill="none" stroke="#3f5787" stroke-width="1.516"/></g><path d="" transform="matrix(1.054072 0 0 1-12.572803 4.246805)" fill="none" stroke="#3f5787" stroke-width="1.516"/><path d="M262.068276,148.611883l.000001-43.894507c-.660886-6.964845-6.312496-16.300265-12.78229-17.520452l-45.786526.273641c.000979,1.620791,0,145.069272,0,145.069272h23.316201l-.519147-63.088776l1.863946-1.667742l9.025425-.098102l2.256356,1.765844.111194,63.088776h23.88051l-1.365669-6.098563v-56.990213c-.624819-4.17209-3.395222-9.830645-7.998918-9.473524-1.578112-1.982587-1.889829-4.504923-.817372-4.842323c3.163088-.338925,5.814932-.330454,8.816289-6.523331Z" transform="translate(.000001 0.000001)" fill="none" stroke="#3f5787" stroke-width="1.516"/><path d="M262.068276,148.611883l.000001-43.894507c-.660886-6.964845-6.312496-16.300265-12.78229-17.520452l-45.786526.273641c.000979,1.620791,0,145.069272,0,145.069272h23.316201l-.519147-63.088776l1.863946-1.667742l9.025425-.098102l2.256356,1.765844.111194,63.088776h23.88051l-1.365669-6.098563v-56.990213c-.624819-4.17209-3.395222-9.830645-7.998918-9.473524-1.578112-1.982587-1.889829-4.504923-.817372-4.842323c3.163088-.338925,5.814932-.330454,8.816289-6.523331Z" transform="translate(.000001 0.000001)" fill="none" stroke="#3f5787" stroke-width="1.516"/><path d="" fill="none" stroke="#3f5787" stroke-width="1.516"/><path d="" fill="none" stroke="#3f5787" stroke-width="1.516"/><path d="M142.369456,87.470566v4.527494" fill="none" stroke="#3f5787" stroke-width="1.516"/><path d="M226.815663,109.541502h10.370224l1.36189,1.807883v32.657585l-1.36189,2.642341-9.649361.10293-.720863-2.745271v-34.465469" transform="translate(0 0.000001)" fill="none" stroke="#3f5787" stroke-width="1.516"/><path d="M269.811975,87.470566l.101611,145.06927h21.916496l.57675-145.06927h-22.594857Z" fill="none" stroke="#3f5787" stroke-width="1.516"/><path d="M301.63483,87.470566l.57675,145.06927h22.493246l-1.1535-64.854618l1.145406-3.410395l3.77337-.053905l1.994496,3.4643l15.255945,64.854618h20.974498l-.26695-145.06927h-23.968545v59.281676l-.609512,3.905057-3.299194-.14663-1.906201-3.758427-11.939813-59.281676h-23.069996Z" fill="none" stroke="#3f5787" stroke-width="1.516"/><path d="M423.290183,213.833621q0,.116264,0,18.706215l-47.369035.218312v-145.287583l44.513657.000002v22.070935l-20.48409-.819621q-1.365606,41.788787-.910404,41.788787t19.181496.14663l-.147037,21.730998-17.497205-.147035v41.50449l22.712617.087869" transform="translate(.000001 0.000001)" fill="none" stroke="#3f5787" stroke-width="1.516"/><path d="M432.87088,87.470566l-.41502,21.251315l14.110701.819622-.830041,122.998332l24.071196-.000001v-123.817956l15.355763-.000001-.000001-21.251316-52.292598.000005Z" transform="translate(.000001 0.000005)" fill="none" stroke="#3f5787" stroke-width="1.516"/><path d="" fill="none" stroke="#3f5787" stroke-width="1.516"/><path d="M262.068276,148.611883l.000001-43.894507c-.660886-6.964845-6.312496-16.300265-12.78229-17.520452l-45.786526.273641c.000979,1.620791,0,145.069272,0,145.069272h23.316201l-.519147-63.088776l1.863946-1.667742l9.025425-.098102l2.256356,1.765844.111194,63.088776h23.88051l-1.365669-6.098563v-56.990213c-.624819-4.17209-3.395222-9.830645-7.998918-9.473524-1.578112-1.982587-1.889829-4.504923-.817372-4.842323c3.163088-.338925,5.814932-.330454,8.816289-6.523331Z" transform="translate(.000001 0.000001)" fill="none" stroke="#3f5787" stroke-width="1.516"/><path d="M226.815663,109.541502h10.370224l1.36189,1.807883v32.657585l-1.36189,2.642341-9.649361.10293-.720863-2.745271v-34.465469" transform="translate(0 0.000001)" fill="none" stroke="#3f5787" stroke-width="1.516"/><path d="M493.688549,87.470571l-1.159724,145.069265l22.421327-.000001.386573-63.088775l2.868885-1.765845l8.202778.098101l1.67784,1.667744v63.088772h25.598728l-2.912919-6.098561-.364114-62.220357-7.756482-4.352535-.338726-4.282996q5.700612-2.414015,5.700612-2.244652t2.75871-4.728851v-43.894507c.039127-3.11174-1.444866-10.177116-8.459322-17.246811l-48.624166.000009Z" transform="translate(.000004 0.000004)" fill="none" stroke="#3f5787" stroke-width="1.516"/><path d="M515.336729,108.721886q0,.819622,0,38.030356h12.749503l-.000001-38.030361q-12.749502-.819618-12.749502.000005Z" transform="translate(.000003 0.000001)" fill="none" stroke="#3f5787" stroke-width="1.516"/><path d="M567.75252,87.196925l-8.099326,145.342911l23.261771-.000001v-35.495318h15.860296v35.495316h24.730724L615.124309,87.196925h-47.371789Z" transform="translate(.000002 0.000003)" fill="none" stroke="#3f5787" stroke-width="1.516"/><path d="M588.035244,109.541501l-2.845567,65.319036l11.342742.143838-2.353337-65.730618q-3.064521-.892858-3.145167-.892858t-2.998671,1.160602Z" transform="translate(.000001 0)" fill="none" stroke="#3f5787" stroke-width="1.516"/></g></svg>
