<?xml version="1.0" encoding="UTF-8"?>
<svg version="1.1" xmlns="http://www.w3.org/2000/svg" width="758" height="237">
<path d="M0 0 C250.14 0 500.28 0 758 0 C758 78.21 758 156.42 758 237 C507.86 237 257.72 237 0 237 C0 158.79 0 80.58 0 0 Z " fill="#FEFEFD" transform="translate(0,0)"/>
<path d="M0 0 C7.92 0 15.84 0 24 0 C28.63614013 20.60506726 32.89774918 41.28248748 37 62 C38.32 62.33 39.64 62.66 41 63 C41 42.21 41 21.42 41 0 C49.25 0 57.5 0 66 0 C66 48.84 66 97.68 66 148 C58.41 148 50.82 148 43 148 C42.10322372 143.83353427 41.20737208 139.66687488 40.3125 135.5 C40.04139404 134.23800781 39.77028809 132.97601563 39.4909668 131.67578125 C37.51550695 122.45889458 35.5929355 113.23185828 33.69580078 103.99853516 C32.46556265 98.06569407 31.12511144 92.20067151 29.48046875 86.3671875 C28.90636729 83.5386876 28.92074241 80.87830207 29 78 C27.35 78 25.7 78 24 78 C24 101.1 24 124.2 24 148 C16.08 148 8.16 148 0 148 C0 99.16 0 50.32 0 0 Z " fill="#E83524" transform="translate(301,87)"/>
<path d="M0 0 C0.85824371 -0.00960754 1.71648743 -0.01921509 2.60073853 -0.02911377 C4.00372696 -0.03548859 4.00372696 -0.03548859 5.43505859 -0.04199219 C6.87297256 -0.0505423 6.87297256 -0.0505423 8.3399353 -0.05926514 C10.37602631 -0.06873465 12.41213279 -0.07525682 14.44824219 -0.07910156 C17.54959389 -0.08876159 20.65027017 -0.11974755 23.75146484 -0.15136719 C25.72932549 -0.15790159 27.70719088 -0.16315034 29.68505859 -0.16699219 C31.06982895 -0.18551239 31.06982895 -0.18551239 32.48257446 -0.20440674 C39.08883525 -0.18180412 43.75019326 0.84402521 49.20849609 4.78613281 C53.99223895 11.27835526 54.41702608 18.86618347 54.39208984 26.67285156 C54.3973317 27.64470901 54.40257355 28.61656647 54.40797424 29.61787415 C54.41435749 31.65743052 54.41310579 33.69702389 54.40454102 35.73657227 C54.39599025 38.85076128 54.42490998 41.96313816 54.45654297 45.07714844 C54.45815428 47.06738227 54.45757879 49.05761933 54.45458984 51.04785156 C54.47144081 52.43552986 54.47144081 52.43552986 54.4886322 53.85124207 C54.42708153 59.56891255 53.7553082 62.80101633 49.95849609 67.16113281 C47.70849609 68.03613281 47.70849609 68.03613281 45.95849609 68.16113281 C45.95849609 69.81113281 45.95849609 71.46113281 45.95849609 73.16113281 C47.10318359 73.53238281 47.10318359 73.53238281 48.27099609 73.91113281 C51.32695536 75.33250922 52.24644111 76.29677531 53.95849609 79.16113281 C54.35049438 81.77003479 54.35049438 81.77003479 54.375 84.76489258 C54.39156647 85.89028946 54.40813293 87.01568634 54.42520142 88.17518616 C54.42845428 89.38871262 54.43170715 90.60223907 54.43505859 91.85253906 C54.45063812 93.10816147 54.46621765 94.36378387 54.48226929 95.65745544 C54.52178409 98.99878855 54.54909182 102.33974306 54.56976318 105.68121338 C54.60121738 110.35922063 54.65331503 115.03702142 54.70614624 119.71482849 C54.73306535 122.20131472 54.75454624 124.68786787 54.76968384 127.17445374 C54.77994598 128.32191574 54.79020813 129.46937775 54.80078125 130.65161133 C54.80727692 131.64548355 54.81377258 132.63935577 54.82046509 133.66334534 C55.01160867 138.50703692 55.51962754 143.33357873 55.95849609 148.16113281 C48.03849609 148.16113281 40.11849609 148.16113281 31.95849609 148.16113281 C30.46265674 142.92569508 29.70944099 140.06644422 29.73144531 134.95043945 C29.73159637 133.7697438 29.73174744 132.58904816 29.73190308 131.37257385 C29.74222565 130.11814987 29.75254822 128.86372589 29.76318359 127.57128906 C29.76601349 126.27162704 29.76884338 124.97196503 29.77175903 123.63291931 C29.77934955 120.19864026 29.79895786 116.76453374 29.82116699 113.33032227 C29.84172488 109.81756931 29.85078189 106.30478813 29.86083984 102.79199219 C29.88220875 95.91496158 29.91735282 89.03807328 29.95849609 82.16113281 C26.32849609 82.16113281 22.69849609 82.16113281 18.95849609 82.16113281 C18.95849609 103.94113281 18.95849609 125.72113281 18.95849609 148.16113281 C11.03849609 148.16113281 3.11849609 148.16113281 -5.04150391 148.16113281 C-5.06462159 129.01198593 -5.08248246 109.86284297 -5.09331608 90.71368504 C-5.09847931 81.82303455 -5.10552251 72.93239288 -5.11694336 64.04174805 C-5.12688938 56.29552055 -5.13335714 48.54929943 -5.1355924 40.80306572 C-5.13689965 36.69892362 -5.13998637 32.59479979 -5.14723396 28.49066353 C-5.1539929 24.63218641 -5.15612113 20.77373516 -5.15461159 16.91525269 C-5.15488797 15.49500831 -5.15689385 14.07476312 -5.16070938 12.65452385 C-5.16564457 10.72371411 -5.16390194 8.79289066 -5.16175842 6.86207581 C-5.16268022 5.77896905 -5.16360201 4.69586229 -5.16455173 3.57993412 C-4.96215376 -0.39868525 -3.57804942 0.03221713 0 0 Z " fill="#E73524" transform="translate(208.04150390625,86.8388671875)"/>
<path d="M0 0 C6.81761894 -0.0252689 13.63522589 -0.04283244 20.45288086 -0.05493164 C22.77417451 -0.05997333 25.09546497 -0.06680651 27.41674805 -0.07543945 C30.74528795 -0.08751225 34.07378602 -0.09322979 37.40234375 -0.09765625 C38.44712387 -0.10281754 39.49190399 -0.10797882 40.56834412 -0.11329651 C41.52926468 -0.11337204 42.49018524 -0.11344757 43.48022461 -0.11352539 C44.33071884 -0.115746 45.18121307 -0.11796661 46.05747986 -0.12025452 C48 0 48 0 49 1 C49.16652312 2.594083 49.26711127 4.19510375 49.34130859 5.79614258 C49.41693024 7.34909782 49.41693024 7.34909782 49.49407959 8.9334259 C49.5450177 10.07559067 49.59595581 11.21775543 49.6484375 12.39453125 C49.70549866 13.58378708 49.76255981 14.77304291 49.8213501 15.99833679 C49.97730354 19.25613174 50.1293643 22.5140827 50.28003693 25.77212524 C50.56847945 31.96959564 50.87078993 38.16641474 51.171875 44.36328125 C51.20569401 45.06243275 51.23951302 45.76158424 51.27435684 46.48192215 C51.9014103 59.4165884 52.64704195 72.34256921 53.42959595 85.26876831 C54.71413266 106.51006633 55.6014154 127.72382895 56 149 C48.41 149 40.82 149 33 149 C31.66162102 136.33001233 30.58402953 123.72569605 30 111 C26.04 111 22.08 111 18 111 C17.24834398 115.76940459 16.82854676 120.42122918 16.68359375 125.24609375 C16.66281265 125.90207047 16.64203156 126.55804718 16.62062073 127.23390198 C16.55594062 129.30167546 16.49662534 131.36956101 16.4375 133.4375 C16.39423693 134.85092242 16.35062035 136.26433407 16.30664062 137.67773438 C16.19968809 141.11837719 16.10001319 144.5591207 16 148 C8.08 148 0.16 148 -8 148 C-8.020625 145.31875 -8.04125 142.6375 -8.0625 139.875 C-8.07615601 138.62565674 -8.07615601 138.62565674 -8.09008789 137.35107422 C-8.09383423 136.33811279 -8.09383423 136.33811279 -8.09765625 135.3046875 C-8.10289307 134.62390137 -8.10812988 133.94311523 -8.11352539 133.24169922 C-8 131 -8 131 -7.52294922 128.34375 C-6.83771022 123.96231524 -6.69390718 119.6230276 -6.53515625 115.1953125 C-6.45784077 113.2434833 -6.38036062 111.29166062 -6.30273438 109.33984375 C-6.26365967 108.32519043 -6.22458496 107.31053711 -6.18432617 106.26513672 C-5.97972197 100.99135056 -5.75954538 95.71828891 -5.53515625 90.4453125 C-5.49648941 89.48126495 -5.45782257 88.51721741 -5.41798401 87.5239563 C-5.08674185 79.73029368 -4.46979807 71.97468615 -3.7364502 64.20927429 C-2.50441346 51.15914349 -2.20771465 38.01763494 -1.69726562 24.92382812 C-1.6580751 23.94385361 -1.61888458 22.96387909 -1.57850647 21.95420837 C-1.5051143 20.10972897 -1.43447155 18.26513717 -1.36717224 16.42042542 C-1.14761037 10.90524582 -0.66701807 5.4796451 0 0 Z " fill="#E73625" transform="translate(567,87)"/>
<path d="M0 0 C47.39841689 0 47.39841689 0 51.92578125 3.48046875 C60.1918376 13.6558677 59.20715071 26.89344348 59.24023438 39.39355469 C59.25001016 41.62732227 59.28115185 43.86019445 59.3125 46.09375 C59.31902598 47.5338488 59.32427804 48.97395405 59.328125 50.4140625 C59.34214355 52.34693115 59.34214355 52.34693115 59.35644531 54.31884766 C58.8863097 59.17412486 57.52917986 63.02480935 54.5 66.9375 C53 68 53 68 50 68 C50 69.65 50 71.3 50 73 C51.1446875 73.37125 51.1446875 73.37125 52.3125 73.75 C55.36421631 75.16940293 56.2850646 76.14406086 58 79 C58.39199829 81.53970337 58.39199829 81.53970337 58.41650391 84.43603516 C58.43307037 85.52461823 58.44963684 86.61320129 58.46670532 87.73477173 C58.46995819 88.90768768 58.47321106 90.08060364 58.4765625 91.2890625 C58.49214203 92.50266449 58.50772156 93.71626648 58.52377319 94.96664429 C58.57133099 98.8527558 58.59903677 102.73868934 58.625 106.625 C58.66163735 110.48975783 58.70247344 114.35441835 58.74765015 118.21908569 C58.77459465 120.62318245 58.79606515 123.02734889 58.81118774 125.43154907 C58.74334662 136.87487135 58.74334662 136.87487135 61 148 C52.75 148 44.5 148 36 148 C34.90704084 144.72112251 34.87958618 142.32732427 34.88647461 138.8762207 C34.88655014 137.61513992 34.88662567 136.35405914 34.88670349 135.05476379 C34.89181011 133.67843588 34.89702611 132.30210837 34.90234375 130.92578125 C34.90420914 129.51759389 34.90563247 128.10940589 34.90663147 126.70121765 C34.91044712 122.9973267 34.92026928 119.29347505 34.93133545 115.58959961 C34.94157003 111.80908744 34.94613348 108.02856891 34.95117188 104.24804688 C34.96189241 96.83201127 34.9794815 89.41601615 35 82 C31.04 82 27.08 82 23 82 C23 103.78 23 125.56 23 148 C15.41 148 7.82 148 0 148 C0 99.16 0 50.32 0 0 Z " fill="#E73524" transform="translate(493,87)"/>
<path d="M0 0 C15.18 0 30.36 0 46 0 C46 7.26 46 14.52 46 22 C38.74 22 31.48 22 24 22 C24 35.53 24 49.06 24 63 C29.61 63 35.22 63 41 63 C42 64 42 64 42.11352539 66.04125977 C42.10828857 66.91580811 42.10305176 67.79035645 42.09765625 68.69140625 C42.09443359 69.63564453 42.09121094 70.57988281 42.08789062 71.55273438 C42.07532227 73.04256836 42.07532227 73.04256836 42.0625 74.5625 C42.05798828 75.55958984 42.05347656 76.55667969 42.04882812 77.58398438 C42.03700023 80.05601487 42.01906415 82.52801472 42 85 C36.06 85 30.12 85 24 85 C24 98.86 24 112.72 24 127 C31.92 127 39.84 127 48 127 C48 133.93 48 140.86 48 148 C32.16 148 16.32 148 0 148 C0 99.16 0 50.32 0 0 Z " fill="#E73625" transform="translate(376,87)"/>
<path d="M0 0 C7.52970132 -0.02464032 15.05937939 -0.04283141 22.58911133 -0.05493164 C25.15291757 -0.0599737 27.71672091 -0.06680714 30.28051758 -0.07543945 C33.95655021 -0.08751064 37.63254498 -0.09322942 41.30859375 -0.09765625 C42.46274277 -0.10281754 43.61689178 -0.10797882 44.80601501 -0.11329651 C46.3975515 -0.11340981 46.3975515 -0.11340981 48.02124023 -0.11352539 C48.96055893 -0.115746 49.89987762 -0.11796661 50.86766052 -0.12025452 C53 0 53 0 54 1 C54.09880797 2.47652664 54.13079245 3.95767236 54.1328125 5.4375 C54.13474609 6.77941406 54.13474609 6.77941406 54.13671875 8.1484375 C54.13285156 9.08945313 54.12898438 10.03046875 54.125 11 C54.13080078 12.41152344 54.13080078 12.41152344 54.13671875 13.8515625 C54.13542969 14.74617188 54.13414062 15.64078125 54.1328125 16.5625 C54.13168457 17.38878906 54.13055664 18.21507813 54.12939453 19.06640625 C54 21 54 21 53 22 C46.565 22.495 46.565 22.495 40 23 C39.67 64.25 39.34 105.5 39 148 C31.08 148 23.16 148 15 148 C15 106.42 15 64.84 15 22 C10.05 22 5.1 22 0 22 C0 14.74 0 7.48 0 0 Z " fill="#E83524" transform="translate(431,87)"/>
<path d="M0 0 C17.49 0 34.98 0 53 0 C53 7.26 53 14.52 53 22 C48.38 22 43.76 22 39 22 C39 63.58 39 105.16 39 148 C31.08 148 23.16 148 15 148 C15 106.42 15 64.84 15 22 C10.05 22 5.1 22 0 22 C0 14.74 0 7.48 0 0 Z " fill="#E33929" transform="translate(142,87)"/>
<path d="M0 0 C7.92 0 15.84 0 24 0 C24 48.84 24 97.68 24 148 C16.08 148 8.16 148 0 148 C0 99.16 0 50.32 0 0 Z " fill="#E73524" transform="translate(269,87)"/>
<path d="M0 0 C0.33 0 0.66 0 1 0 C1 48.51 1 97.02 1 147 C8.59 147 16.18 147 24 147 C24 125.22 24 103.44 24 81 C27.96 81 31.92 81 36 81 C36.33 102.78 36.66 124.56 37 147 C45.25 147 53.5 147 62 147 C61.34 146.01 60.68 145.02 60 144 C58.45183695 136.31529079 58.79074064 128.13877512 58.68359375 120.3359375 C58.66281265 119.06271637 58.64203156 117.78949524 58.62062073 116.47769165 C58.5666794 113.12741131 58.51632356 109.77711774 58.46777344 106.42675781 C58.41712487 102.99409205 58.36166746 99.56150413 58.30664062 96.12890625 C58.20004312 89.41933325 58.09817975 82.70970118 58 76 C58.66 76 59.32 76 60 76 C61.2401806 78.48036121 61.14456526 80.17098512 61.17358398 82.94604492 C61.18707382 83.97859909 61.20056366 85.01115326 61.21446228 86.07499695 C61.22490067 87.19880264 61.23533905 88.32260834 61.24609375 89.48046875 C61.27907756 91.8665395 61.31228832 94.25260712 61.34570312 96.63867188 C61.3927791 100.39474965 61.43711237 104.15081918 61.47680664 107.90698242 C61.58922977 126.2882314 61.58922977 126.2882314 63.77758789 144.5012207 C63.88768188 145.73811646 63.88768188 145.73811646 64 147 C63.34 147.66 62.68 148.32 62 149 C41.21 149 20.42 149 -1 149 C-0.67 99.83 -0.34 50.66 0 0 Z " fill="#FEFCFB" transform="translate(492,88)"/>
<path d="M0 0 C0.33 0 0.66 0 1 0 C1 49.5 1 99 1 150 C-20.78 150 -42.56 150 -65 150 C-65.33 149.34 -65.66 148.68 -66 148 C-58.08 148 -50.16 148 -42 148 C-42 124.9 -42 101.8 -42 78 C-40.35 78 -38.7 78 -37 78 C-36.82984375 78.969375 -36.6596875 79.93875 -36.484375 80.9375 C-35.2623033 87.75134521 -33.93448829 94.48462022 -32.1875 101.1875 C-30.14345309 109.05008325 -28.46937042 116.98541463 -26.8125 124.9375 C-26.55041748 126.18233154 -26.28833496 127.42716309 -26.01831055 128.7097168 C-25.77121338 129.90765869 -25.52411621 131.10560059 -25.26953125 132.33984375 C-25.04885986 133.40581787 -24.82818848 134.47179199 -24.60083008 135.57006836 C-23.88001681 139.68494262 -23.46133108 143.84802028 -23 148 C-15.41 148 -7.82 148 0 148 C0 99.16 0 50.32 0 0 Z " fill="#FEE8E6" transform="translate(367,87)"/>
<path d="M0 0 C7.52970132 -0.02464032 15.05937939 -0.04283141 22.58911133 -0.05493164 C25.15291757 -0.0599737 27.71672091 -0.06680714 30.28051758 -0.07543945 C33.95655021 -0.08751064 37.63254498 -0.09322942 41.30859375 -0.09765625 C42.46274277 -0.10281754 43.61689178 -0.10797882 44.80601501 -0.11329651 C46.3975515 -0.11340981 46.3975515 -0.11340981 48.02124023 -0.11352539 C48.96055893 -0.115746 49.89987762 -0.11796661 50.86766052 -0.12025452 C53 0 53 0 54 1 C54.09880797 2.47652664 54.13079245 3.95767236 54.1328125 5.4375 C54.13474609 6.77941406 54.13474609 6.77941406 54.13671875 8.1484375 C54.13285156 9.08945313 54.12898438 10.03046875 54.125 11 C54.13080078 12.41152344 54.13080078 12.41152344 54.13671875 13.8515625 C54.13542969 14.74617188 54.13414062 15.64078125 54.1328125 16.5625 C54.13168457 17.38878906 54.13055664 18.21507813 54.12939453 19.06640625 C54 21 54 21 53 22 C46.565 22.495 46.565 22.495 40 23 C39.67 64.25 39.34 105.5 39 148 C31.08 148 23.16 148 15 148 C15 106.42 15 64.84 15 22 C10.05 22 5.1 22 0 22 C0 14.74 0 7.48 0 0 Z M2 3 C2 8.61 2 14.22 2 20 C4.124375 20.144375 6.24875 20.28875 8.4375 20.4375 C14.875 20.875 14.875 20.875 16 22 C16.10815857 23.60648515 16.14684545 25.21769223 16.15821838 26.82777405 C16.1680072 27.87250381 16.17779602 28.91723358 16.18788147 29.99362183 C16.19363693 31.14951813 16.1993924 32.30541443 16.20532227 33.49633789 C16.21522186 34.70592667 16.22512146 35.91551544 16.23532104 37.16175842 C16.26157156 40.48803422 16.28340756 43.81428521 16.30332303 47.1406014 C16.32514495 50.61332779 16.35255214 54.08600987 16.37937927 57.55870056 C16.42935763 64.13892978 16.4742773 70.71918352 16.51740164 77.29946083 C16.56673016 84.78909259 16.6216645 92.2786799 16.67708123 99.7682687 C16.79098019 115.17880502 16.89760304 130.58938274 17 146 C23.6 146 30.2 146 37 146 C37 104.75 37 63.5 37 21 C41.29 20.34 45.58 19.68 50 19 C50.33 18.67 50.66 18.34 51 18 C51 13.05 51 8.1 51 3 C34.83 3 18.66 3 2 3 Z " fill="#D03C2F" transform="translate(431,87)"/>
<path d="M0 0 C3.63 0 7.26 0 11 0 C11.02505615 1.75062744 11.0501123 3.50125488 11.07592773 5.30493164 C11.16004298 11.10842942 11.24829918 16.9118564 11.33933926 22.71524906 C11.39435174 26.23160424 11.44773524 29.74796799 11.49731445 33.2644043 C11.55447082 37.31307375 11.6188589 41.36160083 11.68359375 45.41015625 C11.70030624 46.66458023 11.71701874 47.91900421 11.73423767 49.21144104 C11.7641555 50.98248451 11.7641555 50.98248451 11.79467773 52.78930664 C11.81799416 54.33818321 11.81799416 54.33818321 11.84178162 55.91835022 C12.01522574 59.29655465 12.52162049 62.6513434 13 66 C20.92 66 28.84 66 37 66 C36.67 66.66 36.34 67.32 36 68 C16.53 68 -2.94 68 -23 68 C-23 67.34 -23 66.68 -23 66 C-15.41 66 -7.82 66 0 66 C0 44.22 0 22.44 0 0 Z " fill="#FEF8F8" transform="translate(227,169)"/>
<path d="M0 0 C0.85824371 -0.00960754 1.71648743 -0.01921509 2.60073853 -0.02911377 C4.00372696 -0.03548859 4.00372696 -0.03548859 5.43505859 -0.04199219 C6.87297256 -0.0505423 6.87297256 -0.0505423 8.3399353 -0.05926514 C10.37602631 -0.06873465 12.41213279 -0.07525682 14.44824219 -0.07910156 C17.54959389 -0.08876159 20.65027017 -0.11974755 23.75146484 -0.15136719 C25.72932549 -0.15790159 27.70719088 -0.16315034 29.68505859 -0.16699219 C31.06982895 -0.18551239 31.06982895 -0.18551239 32.48257446 -0.20440674 C39.08883525 -0.18180412 43.75019326 0.84402521 49.20849609 4.78613281 C53.99223895 11.27835526 54.41702608 18.86618347 54.39208984 26.67285156 C54.3973317 27.64470901 54.40257355 28.61656647 54.40797424 29.61787415 C54.41435749 31.65743052 54.41310579 33.69702389 54.40454102 35.73657227 C54.39599025 38.85076128 54.42490998 41.96313816 54.45654297 45.07714844 C54.45815428 47.06738227 54.45757879 49.05761933 54.45458984 51.04785156 C54.47144081 52.43552986 54.47144081 52.43552986 54.4886322 53.85124207 C54.42708153 59.56891255 53.7553082 62.80101633 49.95849609 67.16113281 C47.70849609 68.03613281 47.70849609 68.03613281 45.95849609 68.16113281 C45.46349609 70.14113281 45.46349609 70.14113281 44.95849609 72.16113281 C44.95849609 70.18113281 44.95849609 68.20113281 44.95849609 66.16113281 C45.61849609 66.16113281 46.27849609 66.16113281 46.95849609 66.16113281 C47.45349609 64.67613281 47.45349609 64.67613281 47.95849609 63.16113281 C48.96408569 62.59362305 48.96408569 62.59362305 49.98999023 62.01464844 C52.36974328 60.16574019 52.36974328 60.16574019 52.46020508 56.32324219 C52.4798964 54.71724202 52.47645934 53.1108548 52.45458984 51.50488281 C52.45677269 50.21862 52.45677269 50.21862 52.45899963 48.90637207 C52.45733868 47.08728652 52.44575541 45.2681872 52.42504883 43.44921875 C52.39638981 40.69891647 52.40437634 37.95057895 52.41748047 35.20019531 C52.57151366 19.99199099 52.57151366 19.99199099 46.95849609 6.16113281 C32.00374954 -1.31624046 13.67409454 2.54103278 -3.04150391 2.16113281 C-3.04150391 50.01113281 -3.04150391 97.86113281 -3.04150391 147.16113281 C3.55849609 147.16113281 10.15849609 147.16113281 16.95849609 147.16113281 C16.95849609 125.38113281 16.95849609 103.60113281 16.95849609 81.16113281 C19.43227734 79.92424219 21.13764926 80.02803194 23.89599609 80.03613281 C24.77126953 80.03355469 25.64654297 80.03097656 26.54833984 80.02832031 C28.95849609 80.16113281 28.95849609 80.16113281 31.95849609 81.16113281 C31.95849609 102.28113281 31.95849609 123.40113281 31.95849609 145.16113281 C29.94783357 141.13980776 29.71293042 139.62350012 29.73144531 135.29101562 C29.73159637 134.11009338 29.73174744 132.92917114 29.73190308 131.71246338 C29.74738693 129.80760162 29.74738693 129.80760162 29.76318359 127.86425781 C29.76601349 126.56035095 29.76884338 125.25644409 29.77175903 123.9130249 C29.77937888 120.45404332 29.79901301 116.99523088 29.82116699 113.53631592 C29.84166107 110.00372607 29.85076835 106.47110878 29.86083984 102.93847656 C29.88226063 96.01261901 29.91742923 89.08690146 29.95849609 82.16113281 C26.32849609 82.16113281 22.69849609 82.16113281 18.95849609 82.16113281 C18.95849609 103.94113281 18.95849609 125.72113281 18.95849609 148.16113281 C11.03849609 148.16113281 3.11849609 148.16113281 -5.04150391 148.16113281 C-5.06462159 129.01198593 -5.08248246 109.86284297 -5.09331608 90.71368504 C-5.09847931 81.82303455 -5.10552251 72.93239288 -5.11694336 64.04174805 C-5.12688938 56.29552055 -5.13335714 48.54929943 -5.1355924 40.80306572 C-5.13689965 36.69892362 -5.13998637 32.59479979 -5.14723396 28.49066353 C-5.1539929 24.63218641 -5.15612113 20.77373516 -5.15461159 16.91525269 C-5.15488797 15.49500831 -5.15689385 14.07476312 -5.16070938 12.65452385 C-5.16564457 10.72371411 -5.16390194 8.79289066 -5.16175842 6.86207581 C-5.16268022 5.77896905 -5.16360201 4.69586229 -5.16455173 3.57993412 C-4.96215376 -0.39868525 -3.57804942 0.03221713 0 0 Z " fill="#CA564D" transform="translate(208.04150390625,86.8388671875)"/>
<path d="M0 0 C15.18 0 30.36 0 46 0 C46 7.26 46 14.52 46 22 C38.74 22.33 31.48 22.66 24 23 C23.67 35.54 23.34 48.08 23 61 C22.67 61 22.34 61 22 61 C20.51389366 54.80430779 20.81399802 48.50093194 20.81469727 42.1706543 C20.81250349 39.94105135 20.7942994 37.71193793 20.77539062 35.48242188 C20.77245754 34.05989752 20.77047218 32.63737082 20.76953125 31.21484375 C20.76542236 29.92698975 20.76131348 28.63913574 20.75708008 27.31225586 C21 24 21 24 23 20 C29.6 20 36.2 20 43 20 C43 14.06 43 8.12 43 2 C29.47 2 15.94 2 2 2 C2 49.52 2 97.04 2 146 C16.19 146 30.38 146 45 146 C44.67 140.72 44.34 135.44 44 130 C42.56785156 129.93941406 41.13570313 129.87882813 39.66015625 129.81640625 C37.79425959 129.73201896 35.92837476 129.64737007 34.0625 129.5625 C33.11697266 129.52318359 32.17144531 129.48386719 31.19726562 129.44335938 C30.29814453 129.40146484 29.39902344 129.35957031 28.47265625 129.31640625 C27.22367554 129.26141968 27.22367554 129.26141968 25.94946289 129.20532227 C24 129 24 129 23 128 C22.91125865 124.89748799 22.88481545 121.8173188 22.90234375 118.71484375 C22.9037587 117.78402481 22.90517365 116.85320587 22.90663147 115.8941803 C22.91224828 112.90858809 22.9248036 109.92306971 22.9375 106.9375 C22.94251284 104.91862087 22.94707612 102.89974057 22.95117188 100.88085938 C22.96222317 95.92054428 22.97949905 90.96028468 23 86 C23.33 86 23.66 86 24 86 C24 99.53 24 113.06 24 127 C31.92 127 39.84 127 48 127 C48 133.93 48 140.86 48 148 C32.16 148 16.32 148 0 148 C0 99.16 0 50.32 0 0 Z " fill="#BA3F38" transform="translate(376,87)"/>
<path d="M0 0 C1.093125 0.00257813 2.18625 0.00515625 3.3125 0.0078125 C4.405625 0.00523437 5.49875 0.00265625 6.625 0 C9.3125 0.1328125 9.3125 0.1328125 10.3125 1.1328125 C10.54171895 2.91476854 10.70802056 4.70489009 10.84765625 6.49609375 C10.97817383 8.16961914 10.97817383 8.16961914 11.11132812 9.87695312 C11.2418457 11.64329102 11.2418457 11.64329102 11.375 13.4453125 C11.46587891 14.58033203 11.55675781 15.71535156 11.65039062 16.88476562 C12.21474615 24.32322603 12.39745956 31.67336341 12.3125 39.1328125 C19.9025 39.1328125 27.4925 39.1328125 35.3125 39.1328125 C35.065 36.7196875 35.065 36.7196875 34.8125 34.2578125 C34.09995457 25.88791269 34.22858075 17.52473702 34.3125 9.1328125 C34.6425 9.1328125 34.9725 9.1328125 35.3125 9.1328125 C36.33500405 15.83142172 36.43006273 22.3643323 36.375 29.1328125 C36.37048828 30.19371094 36.36597656 31.25460938 36.36132812 32.34765625 C36.34963843 34.94276848 36.33325276 37.53775959 36.3125 40.1328125 C28.9659093 40.15832049 21.61933016 40.17574534 14.27270508 40.18774414 C11.77725803 40.19275021 9.28181388 40.19955705 6.78637695 40.20825195 C3.18440024 40.22048155 -0.41753745 40.22607823 -4.01953125 40.23046875 C-5.67333549 40.23821068 -5.67333549 40.23821068 -7.36054993 40.24610901 C-14.19139575 40.24659562 -20.89715368 39.87843014 -27.6875 39.1328125 C-27.6875 38.8028125 -27.6875 38.4728125 -27.6875 38.1328125 C-20.0975 38.1328125 -12.5075 38.1328125 -4.6875 38.1328125 C-4.69910156 36.04839844 -4.71070313 33.96398437 -4.72265625 31.81640625 C-4.73047496 29.77758944 -4.73653568 27.73877435 -4.74243164 25.69995117 C-4.7474327 24.29271689 -4.7542357 22.88548773 -4.76293945 21.47827148 C-4.77519159 19.44513681 -4.7807707 17.41207136 -4.78515625 15.37890625 C-4.79301147 13.54863892 -4.79301147 13.54863892 -4.80102539 11.68139648 C-4.43432776 0.21913829 -4.43432776 0.21913829 0 0 Z " fill="#FDF5F3" transform="translate(587.6875,196.8671875)"/>
<path d="M0 0 C47.43842365 0 47.43842365 0 52.03125 3.5859375 C52.5159375 4.17632812 53.000625 4.76671875 53.5 5.375 C54.0053125 5.96023437 54.510625 6.54546875 55.03125 7.1484375 C56 9 56 9 55.65625 11.2265625 C55.4396875 11.81179687 55.223125 12.39703125 55 13 C54.34 13 53.68 13 53 13 C52.5875 12.05125 52.175 11.1025 51.75 10.125 C49.93471878 6.8834264 49.42752184 6.07722115 46 5 C44.0085944 4.61866701 42.00720923 4.28674418 40 4 C37.525 3.505 37.525 3.505 35 3 C24.11 2.67 13.22 2.34 2 2 C2.33 49.19 2.66 96.38 3 145 C8.94 145.33 14.88 145.66 21 146 C20.67 143.69 20.34 141.38 20 139 C19.94487526 136.96110003 19.93811121 134.92035312 19.97827148 132.88110352 C19.99836777 131.72042862 20.01846405 130.55975372 20.03916931 129.36390686 C20.06620438 128.13135666 20.09323944 126.89880646 20.12109375 125.62890625 C20.14470474 124.35144028 20.16831573 123.0739743 20.19264221 121.75779724 C20.25602666 118.38267547 20.32426245 115.00772421 20.39489746 111.63275146 C20.46594195 108.18037628 20.53054178 104.72788097 20.59570312 101.27539062 C20.72456219 94.51680148 20.85982391 87.75836339 21 81 C23.74505463 79.62747269 26.00327412 79.86770745 29.0625 79.875 C30.14660156 79.87242187 31.23070312 79.86984375 32.34765625 79.8671875 C35 80 35 80 36 81 C36.09405142 82.9943173 36.11743249 84.99199543 36.11352539 86.98852539 C36.11344986 88.26977798 36.11337433 89.55103058 36.11329651 90.87110901 C36.10818909 92.27995848 36.10297309 93.68880756 36.09765625 95.09765625 C36.09579202 96.53112234 36.09436814 97.96458907 36.09336853 99.39805603 C36.08954372 103.17759957 36.07971377 106.9571049 36.06866455 110.7366333 C36.05844963 114.59069298 36.05387074 118.44475882 36.04882812 122.29882812 C36.03809146 129.86590287 36.02101549 137.43294609 36 145 C35.67 145 35.34 145 35 145 C35 124.21 35 103.42 35 82 C31.04 82 27.08 82 23 82 C23 103.78 23 125.56 23 148 C15.41 148 7.82 148 0 148 C0 99.16 0 50.32 0 0 Z " fill="#C64237" transform="translate(493,87)"/>
<path d="M0 0 C8.25 0 16.5 0 25 0 C25 48.84 25 97.68 25 148 C17.41 148 9.82 148 2 148 C1.15850625 144.1965512 0.32067623 140.39254609 -0.50854492 136.58642578 C-0.92821962 134.66743515 -1.35369338 132.74971567 -1.77929688 130.83203125 C-3.28663398 123.89464844 -4.52941869 117.08871277 -5 110 C-2.02713591 112.39747104 -1.07481447 113.62592765 -0.3125 117.4375 C-0.209375 118.613125 -0.10625 119.78875 0 121 C0.31270581 122.67065974 0.64984951 124.33678518 1 126 C1.5243043 128.49927437 2.04486262 130.99933631 2.5625 133.5 C2.83191406 134.7890625 3.10132813 136.078125 3.37890625 137.40625 C4 141 4 141 4 146 C9.94 146 15.88 146 22 146 C22.94164758 119.49934673 23.11286507 93.0074368 23.12338257 66.49282837 C23.12498649 63.83489605 23.12853816 61.17697262 23.13256836 58.51904297 C23.15750132 39.98962898 23.15025128 21.50227651 22 3 C12.94727449 2.80036278 12.94727449 2.80036278 4 4 C2.9852852 7.04414441 2.85795441 9.15423223 2.82641602 12.34179688 C2.81292618 13.43302856 2.79943634 14.52426025 2.78553772 15.64855957 C2.77509933 16.82672241 2.76466095 18.00488525 2.75390625 19.21875 C2.720979 21.70182659 2.68776717 24.18489942 2.65429688 26.66796875 C2.60679184 30.59193424 2.56234154 34.51588328 2.52319336 38.43994141 C2.48358983 42.2205373 2.43202777 46.00082334 2.37890625 49.78125 C2.3704921 50.95941284 2.36207794 52.13757568 2.35340881 53.35144043 C2.32844582 54.98828796 2.32844582 54.98828796 2.30297852 56.65820312 C2.29267105 57.61956177 2.28236359 58.58092041 2.27174377 59.57141113 C2 62 2 62 0 65 C-2.375 64.6875 -2.375 64.6875 -5 64 C-7.59823489 60.10264767 -8.18502821 56.41471558 -9.125 51.875 C-9.30675781 51.05773437 -9.48851562 50.24046875 -9.67578125 49.3984375 C-10.84866296 43.82504471 -11.17184093 38.69366267 -11 33 C-10.67 33 -10.34 33 -10 33 C-7.39826982 42.5765813 -5.63331791 52.22326017 -4 62 C-2.68 62.33 -1.36 62.66 0 63 C0 42.21 0 21.42 0 0 Z " fill="#D43D31" transform="translate(342,87)"/>
<path d="M0 0 C7.92 0 15.84 0 24 0 C24 48.84 24 97.68 24 148 C16.08 148 8.16 148 0 148 C0 99.16 0 50.32 0 0 Z M2 2 C2 49.52 2 97.04 2 146 C8.6 146 15.2 146 22 146 C22 98.48 22 50.96 22 2 C15.4 2 8.8 2 2 2 Z " fill="#C75046" transform="translate(269,87)"/>
<path d="M0 0 C1.32 0 2.64 0 4 0 C4.80111752 3.56975699 5.16563521 6.95099606 5.28125 10.60546875 C5.31863281 11.67216797 5.35601563 12.73886719 5.39453125 13.83789062 C5.42933594 14.94326172 5.46414063 16.04863281 5.5 17.1875 C5.76786873 26.06927428 5.76786873 26.06927428 6.52734375 34.91796875 C7.2230986 41.31078115 7.10719818 47.70221558 7.0625 54.125 C7.05798828 55.36765625 7.05347656 56.6103125 7.04882812 57.890625 C7.03714924 60.92713502 7.0207714 63.96354088 7 67 C5.52093108 67.02689216 4.04172517 67.04634621 2.5625 67.0625 C1.32693359 67.07990234 1.32693359 67.07990234 0.06640625 67.09765625 C-2 67 -2 67 -3 66 C-3.09996077 64.55094599 -3.13081044 63.09702761 -3.1328125 61.64453125 C-3.13482666 60.7220459 -3.13684082 59.79956055 -3.13891602 58.84912109 C-3.13432373 57.84703613 -3.12973145 56.84495117 -3.125 55.8125 C-3.12234131 54.78979004 -3.11968262 53.76708008 -3.11694336 52.71337891 C-3.0728361 45.42730638 -2.88152461 38.15405756 -2.5625 30.875 C-2.52334473 29.95823486 -2.48418945 29.04146973 -2.44384766 28.09692383 C-2.24089429 23.94882145 -1.84696221 20.06938873 -1 16 C-0.74297791 13.2329571 -0.58875104 10.46208872 -0.4375 7.6875 C-0.39431641 6.94693359 -0.35113281 6.20636719 -0.30664062 5.44335938 C-0.20129568 3.62908536 -0.10021684 1.8145645 0 0 Z " fill="#FDF0EF" transform="translate(589,109)"/>
<path d="M0 0 C0.90070724 0.02017181 1.80141449 0.04034363 2.72941589 0.06112671 C4.18267021 0.10942123 4.18267021 0.10942123 5.6652832 0.15869141 C6.65986038 0.18371735 7.65443756 0.20874329 8.67915344 0.23452759 C11.85846904 0.31675544 15.03716606 0.41333481 18.21606445 0.51025391 C20.37033599 0.56849058 22.52463297 0.62579392 24.67895508 0.68212891 C29.96250131 0.82233826 35.24561061 0.97433528 40.52856445 1.13525391 C40.52856445 1.46525391 40.52856445 1.79525391 40.52856445 2.13525391 C25.34856445 2.13525391 10.16856445 2.13525391 -5.47143555 2.13525391 C-5.47143555 50.97525391 -5.47143555 99.81525391 -5.47143555 150.13525391 C10.36856445 150.13525391 26.20856445 150.13525391 42.52856445 150.13525391 C42.52856445 150.79525391 42.52856445 151.45525391 42.52856445 152.13525391 C35.7292561 152.1605487 28.92995982 152.17809739 22.13061523 152.19018555 C19.8161575 152.19522334 17.50170295 152.20205371 15.18725586 152.21069336 C11.86612155 152.22278314 8.5450292 152.22848766 5.22387695 152.23291016 C3.6644487 152.24065208 3.6644487 152.24065208 2.07351685 152.24855042 C1.11267181 152.24862595 0.15182678 152.24870148 -0.83813477 152.2487793 C-1.68640839 152.25099991 -2.53468201 152.25322052 -3.40866089 152.25550842 C-5.47143555 152.13525391 -5.47143555 152.13525391 -7.47143555 151.13525391 C-8.67477951 147.84921978 -8.58826879 144.63125886 -8.57391357 141.16293335 C-8.57120956 139.94027267 -8.56850555 138.717612 -8.5657196 137.457901 C-8.55752208 136.10604786 -8.54920193 134.75419546 -8.54077148 133.40234375 C-8.53553732 131.97644692 -8.53071044 130.55054854 -8.52626038 129.12464905 C-8.51262479 125.25500432 -8.49218035 121.38542534 -8.46969509 117.51582289 C-8.45583028 115.09962962 -8.44319478 112.68343296 -8.43094635 110.26723099 C-8.3923574 102.7109464 -8.34974482 95.15470106 -8.30117106 87.59847391 C-8.24506245 78.86821444 -8.20207862 70.13802085 -8.17049003 61.40763891 C-8.14531623 54.6618592 -8.10874125 47.91620217 -8.06340432 41.17052805 C-8.03655821 37.1396287 -8.01458267 33.10884059 -8.0043869 29.07786179 C-7.99447979 25.29057442 -7.97047772 21.50364089 -7.93545341 17.71650505 C-7.92502891 16.32412158 -7.91974579 14.93168907 -7.91988564 13.53926659 C-7.91929753 11.64399269 -7.89866694 9.74875607 -7.87689209 7.85360718 C-7.87098431 6.79136618 -7.86507652 5.72912518 -7.85898972 4.63469505 C-7.73109684 3.80987947 -7.60320396 2.9850639 -7.47143555 2.13525391 C-4.28354499 0.00999353 -3.62605384 -0.10157014 0 0 Z " fill="#F7CEC9" transform="translate(381.471435546875,84.86474609375)"/>
<path d="M0 0 C3.63 0 7.26 0 11 0 C11 12.21 11 24.42 11 37 C7.04 37 3.08 37 -1 37 C-1.0246501 31.89136104 -1.04283607 26.78275641 -1.05493164 21.67407227 C-1.05997204 19.93480832 -1.0668043 18.19554864 -1.07543945 16.45629883 C-1.08751792 13.96174063 -1.09323108 11.46723827 -1.09765625 8.97265625 C-1.10281754 8.19036148 -1.10797882 7.40806671 -1.11329651 6.60206604 C-1.11349226 4.73432886 -1.06199694 2.86670796 -1 1 C-0.67 0.67 -0.34 0.34 0 0 Z " fill="#FEFDFC" transform="translate(517,109)"/>
<path d="M0 0 C3.63 0 7.26 0 11 0 C12 1 12 1 12.11352539 4.41821289 C12.11336628 5.93636988 12.10767226 7.45453229 12.09765625 8.97265625 C12.0962413 9.77029892 12.09482635 10.56794159 12.09336853 11.38975525 C12.08775316 13.94737435 12.07519812 16.50490718 12.0625 19.0625 C12.05748698 20.79231645 12.05292373 22.52213426 12.04882812 24.25195312 C12.03777875 28.50133553 12.02050386 32.75065312 12 37 C8.04 37 4.08 37 0 37 C0 24.79 0 12.58 0 0 Z " fill="#FEFDFC" transform="translate(227,109)"/>
<path d="M0 0 C6.81761894 -0.0252689 13.63522589 -0.04283244 20.45288086 -0.05493164 C22.77417451 -0.05997333 25.09546497 -0.06680651 27.41674805 -0.07543945 C30.74528795 -0.08751225 34.07378602 -0.09322979 37.40234375 -0.09765625 C38.44712387 -0.10281754 39.49190399 -0.10797882 40.56834412 -0.11329651 C41.52926468 -0.11337204 42.49018524 -0.11344757 43.48022461 -0.11352539 C44.33071884 -0.115746 45.18121307 -0.11796661 46.05747986 -0.12025452 C48 0 48 0 49 1 C49.18240527 2.76332231 49.29879429 4.53351578 49.38891602 6.30395508 C49.44890274 7.44057083 49.50888947 8.57718658 49.57069397 9.74824524 C49.63115402 10.99276962 49.69161407 12.23729401 49.75390625 13.51953125 C49.85166603 15.44390266 49.85166603 15.44390266 49.95140076 17.40715027 C50.08976632 20.141813 50.22465384 22.8766204 50.35717773 25.61157227 C50.52433273 29.05542459 50.70005315 32.49877255 50.87833595 35.94206429 C51.65239568 50.97042016 52.23198174 65.95032455 52 81 C51.67 81 51.34 81 51 81 C50.07106003 73.42913925 49.67787341 65.90781833 49.39453125 58.2890625 C49.33845703 56.94328125 49.33845703 56.94328125 49.28125 55.5703125 C49.25095703 54.76352051 49.22066406 53.95672852 49.18945312 53.12548828 C49.065675 50.81243656 49.065675 50.81243656 48 48 C47.88650152 46.54293083 47.82398525 45.08155041 47.79467773 43.62036133 C47.7647599 42.29933159 47.7647599 42.29933159 47.73423767 40.95161438 C47.71752518 40.00465195 47.70081268 39.05768951 47.68359375 38.08203125 C47.66281265 37.10965012 47.64203156 36.13726898 47.62062073 35.13542175 C47.55521252 32.02785335 47.49628071 28.92020015 47.4375 25.8125 C47.39430649 23.70637142 47.35069193 21.60025144 47.30664062 19.49414062 C47.19874733 14.32951276 47.09960877 9.16482093 47 4 C32.81 3.67 18.62 3.34 4 3 C2.53051784 7.40844647 2.6117445 11.83494431 2.37890625 16.45703125 C2.13683386 20.07921833 1.60744962 23.61502826 1.04321289 27.20043945 C-0.16403099 35.56084617 -0.64426637 43.90508057 -1.0703125 52.3359375 C-1.15659229 53.95263526 -1.24342519 55.56930358 -1.33078003 57.1859436 C-1.55653052 61.39079723 -1.77488939 65.59600148 -1.99157715 69.80133057 C-2.21507915 74.11258809 -2.44575461 78.42346155 -2.67578125 82.734375 C-3.12410904 91.15589539 -3.56460903 99.57780091 -4 108 C-4.66 108 -5.32 108 -6 108 C-5.28504094 80.84318115 -5.28504094 80.84318115 -4.0625 68.0625 C-2.70186595 53.71877536 -2.25863887 39.32055702 -1.69750977 24.92797852 C-1.658284 23.94740479 -1.61905823 22.96683105 -1.5786438 21.95654297 C-1.50518857 20.11119942 -1.43449185 18.26574303 -1.36715698 16.42016602 C-1.14760921 10.90507342 -0.66700745 5.47955781 0 0 Z " fill="#C7493E" transform="translate(567,87)"/>
<path d="M0 0 C7.52970132 -0.02464032 15.05937939 -0.04283141 22.58911133 -0.05493164 C25.15291757 -0.0599737 27.71672091 -0.06680714 30.28051758 -0.07543945 C33.95655021 -0.08751064 37.63254498 -0.09322942 41.30859375 -0.09765625 C42.46274277 -0.10281754 43.61689178 -0.10797882 44.80601501 -0.11329651 C46.3975515 -0.11340981 46.3975515 -0.11340981 48.02124023 -0.11352539 C48.96055893 -0.115746 49.89987762 -0.11796661 50.86766052 -0.12025452 C53 0 53 0 54 1 C54.09880797 2.47652664 54.13079245 3.95767236 54.1328125 5.4375 C54.13474609 6.77941406 54.13474609 6.77941406 54.13671875 8.1484375 C54.13285156 9.08945313 54.12898438 10.03046875 54.125 11 C54.13080078 12.41152344 54.13080078 12.41152344 54.13671875 13.8515625 C54.13542969 14.74617188 54.13414062 15.64078125 54.1328125 16.5625 C54.13168457 17.38878906 54.13055664 18.21507813 54.12939453 19.06640625 C54 21 54 21 53 22 C46.565 22.495 46.565 22.495 40 23 C39.67 64.25 39.34 105.5 39 148 C31.08 148 23.16 148 15 148 C15 106.75 15 65.5 15 23 C15.33 23 15.66 23 16 23 C16 63.92 16 104.84 16 147 C23.26 147 30.52 147 38 147 C37.67 105.42 37.34 63.84 37 21 C41.26159382 18.86920309 47.40763702 19.95497683 52 20 C52 13.73 52 7.46 52 1 C35.5 1.33 19 1.66 2 2 C1.67 8.6 1.34 15.2 1 22 C0.67 22 0.34 22 0 22 C0 14.74 0 7.48 0 0 Z " fill="#BD5047" transform="translate(431,87)"/>
<path d="M0 0 C0.33 0 0.66 0 1 0 C1 48.51 1 97.02 1 147 C8.59 147 16.18 147 24 147 C24 125.22 24 103.44 24 81 C27.96 81 31.92 81 36 81 C36 99.15 36 117.3 36 136 C35.67 136 35.34 136 35 136 C35 118.18 35 100.36 35 82 C32.03 82 29.06 82 26 82 C26.16389725 82.70478989 26.32779449 83.40957977 26.49665833 84.13572693 C27.01970109 87.11210933 27.09530402 89.80837414 27.0534668 92.82836914 C27.0398259 93.97628433 27.026185 95.12419952 27.01213074 96.30690002 C26.99136978 97.53722458 26.97060883 98.76754913 26.94921875 100.03515625 C26.9303511 101.30596542 26.91148346 102.5767746 26.89204407 103.88609314 C26.85020629 106.57006742 26.80596203 109.25388332 26.75805664 111.93774414 C26.6973659 115.37298258 26.65049032 118.80825617 26.60722637 122.24375248 C26.56333271 125.52853325 26.50544561 128.81306699 26.44921875 132.09765625 C26.43453049 133.33000504 26.41984222 134.56235382 26.40470886 135.83204651 C26.37006279 137.54919106 26.37006279 137.54919106 26.3347168 139.30102539 C26.31837692 140.30742569 26.30203705 141.31382599 26.28520203 142.35072327 C26 145 26 145 24 149 C15.75 149 7.5 149 -1 149 C-0.67 99.83 -0.34 50.66 0 0 Z " fill="#FDD3CD" transform="translate(492,88)"/>
<path d="M0 0 C7.92 0 15.84 0 24 0 C24 0.99 24 1.98 24 3 C23.42403076 2.83773926 22.84806152 2.67547852 22.25463867 2.50830078 C20.0606587 2.0136753 18.16885182 1.87088153 15.92578125 1.8671875 C15.17619141 1.86589844 14.42660156 1.86460938 13.65429688 1.86328125 C12.88150391 1.86714844 12.10871094 1.87101562 11.3125 1.875 C10.52810547 1.87113281 9.74371094 1.86726563 8.93554688 1.86328125 C5.1624953 1.50479259 5.1624953 1.50479259 2 3 C1.89126816 4.85992153 1.85311214 6.72398877 1.84178162 8.58705139 C1.8319928 9.80006424 1.82220398 11.01307709 1.81211853 12.2628479 C1.80621358 13.61932334 1.80040319 14.97579919 1.79467773 16.33227539 C1.78510451 17.751127 1.77509477 19.16997573 1.76467896 20.58882141 C1.73756355 24.45225694 1.71659005 28.31570478 1.69667697 32.17918324 C1.67485819 36.21245029 1.64744947 40.24567914 1.62062073 44.27891541 C1.5706381 51.92162698 1.52572002 59.5643597 1.48259836 67.20711273 C1.43327348 75.90590731 1.3783378 84.60466358 1.32291877 93.30342114 C1.20901326 111.20224544 1.10239201 129.10110639 1 147 C7.93 146.67 14.86 146.34 22 146 C21.99476318 143.92025879 21.98952637 141.84051758 21.98413086 139.69775391 C21.96758245 132.83656638 21.95652374 125.97537798 21.94818783 119.1141758 C21.94296281 114.95305961 21.93587205 110.79196382 21.92456055 106.63085938 C21.91371816 102.61734185 21.90772028 98.60384399 21.90512276 94.59031296 C21.90327095 93.05686509 21.899655 91.52341832 21.89426994 89.98997879 C21.8870416 87.84697368 21.88600982 85.70405044 21.88647461 83.56103516 C21.884254 82.33969879 21.88203339 81.11836243 21.87974548 79.86001587 C22 77 22 77 23 75 C24.65 75 26.3 75 28 75 C28.33 75.99 28.66 76.98 29 78 C27.35 78 25.7 78 24 78 C24 101.1 24 124.2 24 148 C16.08 148 8.16 148 0 148 C0 99.16 0 50.32 0 0 Z " fill="#D15B53" transform="translate(301,87)"/>
<path d="M0 0 C0.97448593 -0.00315216 1.94897186 -0.00630432 2.95298767 -0.009552 C4.01336746 -0.00752777 5.07374725 -0.00550354 6.16625977 -0.00341797 C7.24770767 -0.00437469 8.32915558 -0.00533142 9.44337463 -0.00631714 C11.73585061 -0.00699918 14.02832849 -0.00514324 16.32080078 -0.00097656 C19.83899257 0.00436617 23.35705638 -0.00091811 26.87524414 -0.00732422 C29.09724963 -0.00666334 31.31925504 -0.00538198 33.54125977 -0.00341797 C35.12879311 -0.00645432 35.12879311 -0.00645432 36.74839783 -0.009552 C37.72603592 -0.00639984 38.70367401 -0.00324768 39.7109375 0 C41.00547096 0.00119339 41.00547096 0.00119339 42.32615662 0.00241089 C44.42016602 0.12939453 44.42016602 0.12939453 46.42016602 1.12939453 C46.42016602 7.72939453 46.42016602 14.32939453 46.42016602 21.12939453 C41.80016602 21.45939453 37.18016602 21.78939453 32.42016602 22.12939453 C32.09016602 63.04939453 31.76016602 103.96939453 31.42016602 146.12939453 C24.49016602 146.12939453 17.56016602 146.12939453 10.42016602 146.12939453 C10.42016602 145.79939453 10.42016602 145.46939453 10.42016602 145.12939453 C17.02016602 145.12939453 23.62016602 145.12939453 30.42016602 145.12939453 C30.40319672 143.58035431 30.38622742 142.03131409 30.3687439 140.43533325 C30.21046209 125.86706128 30.06259268 111.29872623 29.92539024 96.73024178 C29.85457711 89.23969011 29.77997817 81.74921154 29.6965332 74.25878906 C29.6238307 67.73180582 29.55816366 61.20479667 29.50102198 54.67765796 C29.47050488 51.22007435 29.43641291 47.76260776 29.39390182 44.30514908 C29.3466316 40.44992312 29.31506577 36.59465761 29.28491211 32.73925781 C29.26837082 31.58695679 29.25182953 30.43465576 29.23478699 29.24743652 C29.22912216 28.20133209 29.22345734 27.15522766 29.21762085 26.0774231 C29.20840292 25.16484804 29.19918499 24.25227299 29.18968773 23.31204414 C29.42016602 21.12939453 29.42016602 21.12939453 31.42016602 19.12939453 C35.76411673 18.85022032 40.06367568 19.04397315 44.42016602 19.12939453 C44.42016602 13.51939453 44.42016602 7.90939453 44.42016602 2.12939453 C28.58016602 2.45939453 12.74016602 2.78939453 -3.57983398 3.12939453 C-3.57983398 8.40939453 -3.57983398 13.68939453 -3.57983398 19.12939453 C-4.23983398 19.12939453 -4.89983398 19.12939453 -5.57983398 19.12939453 C-5.60667386 16.1501686 -5.62659435 13.17118158 -5.64233398 10.19189453 C-5.65071289 9.34175781 -5.6590918 8.49162109 -5.66772461 7.61572266 C-5.67094727 6.80683594 -5.67416992 5.99794922 -5.67749023 5.16455078 C-5.68272705 4.41568604 -5.68796387 3.66682129 -5.69335938 2.89526367 C-5.45957777 -0.7411715 -3.08006684 0.00284204 0 0 Z " fill="#C33D32" transform="translate(148.579833984375,87.87060546875)"/>
<path d="M0 0 C0.33 0 0.66 0 1 0 C1 46.86 1 93.72 1 142 C15.19 142 29.38 142 44 142 C43.67 136.72 43.34 131.44 43 126 C41.56785156 125.93941406 40.13570313 125.87882812 38.66015625 125.81640625 C36.79425959 125.73201896 34.92837476 125.64737007 33.0625 125.5625 C32.11697266 125.52318359 31.17144531 125.48386719 30.19726562 125.44335938 C29.29814453 125.40146484 28.39902344 125.35957031 27.47265625 125.31640625 C26.64000244 125.27974854 25.80734863 125.24309082 24.94946289 125.20532227 C23 125 23 125 22 124 C21.91125865 120.89748799 21.88481545 117.8173188 21.90234375 114.71484375 C21.9037587 113.78402481 21.90517365 112.85320587 21.90663147 111.8941803 C21.91224828 108.90858809 21.9248036 105.92306971 21.9375 102.9375 C21.94251284 100.91862087 21.94707612 98.89974057 21.95117188 96.88085938 C21.96222317 91.92054428 21.97949905 86.96028468 22 82 C22.33 82 22.66 82 23 82 C23 95.53 23 109.06 23 123 C30.92 123 38.84 123 47 123 C47 129.93 47 136.86 47 144 C31.49 143.67 15.98 143.34 0 143 C0 95.81 0 48.62 0 0 Z " fill="#D9473D" transform="translate(377,91)"/>
<path d="M0 0 C3.67986596 -0.204437 5.78360346 0.25434889 9 2 C8.98428955 2.95531616 8.98428955 2.95531616 8.96826172 3.92993164 C8.78685587 16.76956215 8.95798639 29.42905626 10.28857422 42.20922852 C10.82827211 47.45372595 11.08235883 52.57450172 10.97412109 57.84814453 C10.94284196 60.22938411 10.94284196 60.22938411 11.625 63.4375 C12 66 12 66 10 69 C9.34 69 8.68 69 8 69 C7.97494385 68.23445801 7.9498877 67.46891602 7.92407227 66.68017578 C7.80696546 63.16166069 7.68476595 59.64333945 7.5625 56.125 C7.52318359 54.92101562 7.48386719 53.71703125 7.44335938 52.4765625 C7.26153246 47.32946215 7.07180736 42.21385516 6.5 37.09375 C5.74460288 30.21124288 5.63897637 23.29098483 5.4375 16.375 C5.39419373 14.97525068 5.35057613 13.57551096 5.30664062 12.17578125 C5.20137645 8.78393549 5.09923991 5.39202646 5 2 C3.68 2 2.36 2 1 2 C1.01160156 3.09699219 1.02320313 4.19398437 1.03515625 5.32421875 C1.04453964 6.77864412 1.05363925 8.23307135 1.0625 9.6875 C1.07087891 10.40873047 1.07925781 11.12996094 1.08789062 11.87304688 C1.1055912 15.74947302 0.77420531 19.22005645 0 23 C-0.27968318 26.26659088 -0.42172268 29.53733149 -0.5625 32.8125 C-0.62618774 34.2358667 -0.62618774 34.2358667 -0.69116211 35.68798828 C-1.14083707 46.78962158 -1.09508074 57.89164368 -1 69 C-1.99 69 -2.98 69 -4 69 C-4.06669472 57.98796098 -3.87748166 47.00523722 -3.5 36 C-3.4515835 34.53125787 -3.40340556 33.06250786 -3.35546875 31.59375 C-3.23971031 28.06240545 -3.12078988 24.53117647 -3 21 C-2.34 21 -1.68 21 -1 21 C-1.00523682 20.43490723 -1.01047363 19.86981445 -1.01586914 19.28759766 C-1.03662422 16.7334097 -1.0496554 14.17923947 -1.0625 11.625 C-1.07087891 10.73554687 -1.07925781 9.84609375 -1.08789062 8.9296875 C-1.09111328 8.07890625 -1.09433594 7.228125 -1.09765625 6.3515625 C-1.10289307 5.56604004 -1.10812988 4.78051758 -1.11352539 3.97119141 C-1 2 -1 2 0 0 Z " fill="#D43D31" transform="translate(588,107)"/>
<path d="M0 0 C4.15560793 8.31121587 3.21605299 18.25702131 3.24023438 27.39355469 C3.25001016 29.62732227 3.28115185 31.86019445 3.3125 34.09375 C3.31902598 35.5338488 3.32427804 36.97395405 3.328125 38.4140625 C3.34214355 40.34693115 3.34214355 40.34693115 3.35644531 42.31884766 C2.8863097 47.17412486 1.52917986 51.02480935 -1.5 54.9375 C-3 56 -3 56 -6 56 C-6 57.65 -6 59.3 -6 61 C-5.236875 61.2475 -4.47375 61.495 -3.6875 61.75 C-0.63578369 63.16940293 0.2850646 64.14406086 2 67 C2.39199829 69.53970337 2.39199829 69.53970337 2.41650391 72.43603516 C2.44135361 74.06890976 2.44135361 74.06890976 2.46670532 75.73477173 C2.46995819 76.90768768 2.47321106 78.08060364 2.4765625 79.2890625 C2.49214203 80.50266449 2.50772156 81.71626648 2.52377319 82.96664429 C2.57133099 86.8527558 2.59903677 90.73868934 2.625 94.625 C2.66163735 98.48975783 2.70247344 102.35441835 2.74765015 106.21908569 C2.77459465 108.62318245 2.79606515 111.02734889 2.81118774 113.43154907 C2.74334662 124.87487135 2.74334662 124.87487135 5 136 C-3.25 136 -11.5 136 -20 136 C-20 135.01 -20 134.02 -20 133 C-12.74 133.33 -5.48 133.66 2 134 C1.67 133.01 1.34 132.02 1 131 C0.89375205 129.18154403 0.84400862 127.35955821 0.82641602 125.53808594 C0.81292618 124.41972351 0.79943634 123.30136108 0.78553772 122.14910889 C0.77509933 120.9397467 0.76466095 119.73038452 0.75390625 118.484375 C0.72096287 115.92838206 0.6877513 113.37239256 0.65429688 110.81640625 C0.6058841 106.78308357 0.56209274 102.74973394 0.52319336 98.71630859 C0.48340263 94.82634765 0.43186853 90.93667581 0.37890625 87.046875 C0.3704921 85.84560974 0.36207794 84.64434448 0.35340881 83.40667725 C0.51896619 73.64776176 0.51896619 73.64776176 -3.625 65.1875 C-4.305625 64.5996875 -4.305625 64.5996875 -5 64 C-5 63.34 -5 62.68 -5 62 C-6.32 61.67 -7.64 61.34 -9 61 C-9.20086443 57.28400809 -9.1519437 56.22791555 -7 53 C-4.375 52.3125 -4.375 52.3125 -2 52 C-1.67 51.01 -1.34 50.02 -1 49 C-0.34 49 0.32 49 1 49 C0.67 32.83 0.34 16.66 0 0 Z " fill="#C7473D" transform="translate(549,99)"/>
<path d="M0 0 C0.77150391 0.00322266 1.54300781 0.00644531 2.33789062 0.00976562 C3.09779297 -0.00634766 3.85769531 -0.02246094 4.640625 -0.0390625 C5.38248047 -0.03970703 6.12433594 -0.04035156 6.88867188 -0.04101562 C7.56196533 -0.04399658 8.23525879 -0.04697754 8.92895508 -0.05004883 C11.87801879 0.4736873 13.66056959 1.48833285 16.02539062 3.32226562 C17.05200195 5.80249023 17.05200195 5.80249023 17.60742188 8.72460938 C17.81689453 9.77970703 18.02636719 10.83480469 18.2421875 11.921875 C18.53706055 13.57413086 18.53706055 13.57413086 18.83789062 15.25976562 C19.05380859 16.35740234 19.26972656 17.45503906 19.4921875 18.5859375 C20.32617856 22.9253386 21.02539062 26.89136218 21.02539062 31.32226562 C20.36539062 31.32226562 19.70539063 31.32226562 19.02539062 31.32226562 C17.04441493 26.43585892 16.61564091 21.81972407 16.27148438 16.61523438 C16.27201909 14.3596901 16.27201909 14.3596901 15.02539062 13.32226562 C14.9847523 11.65609447 14.98266962 9.98838468 15.02539062 8.32226562 C14.36539062 8.32226562 13.70539063 8.32226562 13.02539062 8.32226562 C12.69539063 6.67226562 12.36539062 5.02226563 12.02539062 3.32226562 C6.08539063 3.32226562 0.14539063 3.32226562 -5.97460938 3.32226562 C-6.30460937 50.18226563 -6.63460938 97.04226562 -6.97460938 145.32226562 C-1.36460937 145.32226562 4.24539063 145.32226562 10.02539062 145.32226562 C10.02539062 145.65226563 10.02539062 145.98226562 10.02539062 146.32226562 C4.08539063 146.32226562 -1.85460937 146.32226562 -7.97460938 146.32226562 C-8.02085945 127.58154825 -8.05657404 108.84084693 -8.07823372 90.1000843 C-8.08855691 81.39889715 -8.10263709 72.69774605 -8.12548828 63.99658203 C-8.14539032 56.41478384 -8.15831822 48.83301175 -8.16278636 41.25118816 C-8.16539917 37.23473879 -8.17156187 33.21836412 -8.18606949 29.20193863 C-8.19960315 25.42469409 -8.20384062 21.64755532 -8.20082474 17.87028885 C-8.2013768 16.48109869 -8.20537932 15.09190515 -8.21302032 13.7027359 C-8.22291509 11.81170687 -8.21939968 9.92062161 -8.21511841 8.02957153 C-8.21696199 6.9695096 -8.21880558 5.90944767 -8.22070503 4.81726265 C-7.70822559 -0.37841899 -4.48711164 0.04310762 0 0 Z " fill="#D03C2F" transform="translate(309.974609375,87.677734375)"/>
<path d="M0 0 C3.63 0 7.26 0 11 0 C11 19.47 11 38.94 11 59 C10.67 59 10.34 59 10 59 C10 39.86 10 20.72 10 1 C5.19695965 2.54042748 5.19695965 2.54042748 3 5 C2.6818138 7.60803243 2.6818138 7.60803243 2.71289062 10.68725586 C2.69947632 11.87866684 2.68606201 13.07007782 2.67224121 14.29759216 C2.66696411 15.59028519 2.66168701 16.88297821 2.65625 18.21484375 C2.64261672 19.55002532 2.62783069 20.88519558 2.61193848 22.22035217 C2.56367336 26.45933338 2.53076611 30.6983604 2.5 34.9375 C2.46434427 39.84592068 2.42242639 44.75411722 2.36405945 49.66232491 C2.34398512 51.62930516 2.33580144 53.59639506 2.32775879 55.5634613 C2.31434448 56.75802444 2.30093018 57.95258759 2.28710938 59.18334961 C2.27981812 60.23654892 2.27252686 61.28974823 2.26501465 62.37486267 C2 65 2 65 0 68 C-2.33837891 68.34057617 -2.33837891 68.34057617 -5.2265625 68.29296875 C-6.2578125 68.28330078 -7.2890625 68.27363281 -8.3515625 68.26367188 C-9.97191406 68.2259668 -9.97191406 68.2259668 -11.625 68.1875 C-12.71296875 68.17396484 -13.8009375 68.16042969 -14.921875 68.14648438 C-17.61507409 68.11104754 -20.30729374 68.06164331 -23 68 C-23 67.34 -23 66.68 -23 66 C-15.41 66 -7.82 66 0 66 C0 44.22 0 22.44 0 0 Z " fill="#FEE4E0" transform="translate(227,169)"/>
<path d="M0 0 C0 0.66 0 1.32 0 2 C0.99 2.33 1.98 2.66 3 3 C3.07412765 8.21440513 3.12859104 13.42850393 3.16479492 18.64331055 C3.17988641 20.41745343 3.20036191 22.19155898 3.22631836 23.96557617 C3.26268641 26.51490487 3.27972238 29.06374059 3.29296875 31.61328125 C3.30845261 32.40712723 3.32393646 33.20097321 3.33988953 34.01887512 C3.34156692 39.50086209 3.34156692 39.50086209 1.63671875 41.9921875 C-0.63509463 43.39106065 -2.53950916 43.51555254 -5.1875 43.6875 C-6.08855469 43.75324219 -6.98960937 43.81898438 -7.91796875 43.88671875 C-8.94857422 43.94279297 -8.94857422 43.94279297 -10 44 C-10.433125 43.0409375 -10.433125 43.0409375 -10.875 42.0625 C-11.82823451 39.84793921 -11.82823451 39.84793921 -14 39 C-14.07414321 34.07042741 -14.12859817 29.14117919 -14.16479492 24.21118164 C-14.17988384 22.5340408 -14.20035748 20.85693943 -14.22631836 19.17993164 C-14.26269811 16.76959496 -14.27972486 14.35977981 -14.29296875 11.94921875 C-14.30845261 11.19912033 -14.32393646 10.44902191 -14.33988953 9.67619324 C-14.3415724 4.47367942 -14.3415724 4.47367942 -12.59106445 2.04614258 C-8.67364524 -0.52960414 -4.56521511 -0.0877926 0 0 Z M-11 3 C-11 15.21 -11 27.42 -11 40 C-7.04 40 -3.08 40 1 40 C1.0246501 34.89136104 1.04283607 29.78275641 1.05493164 24.67407227 C1.05997204 22.93480832 1.0668043 21.19554864 1.07543945 19.45629883 C1.08751792 16.96174063 1.09323108 14.46723827 1.09765625 11.97265625 C1.10281754 11.19036148 1.10797882 10.40806671 1.11329651 9.60206604 C1.11349226 7.73432886 1.06199694 5.86670796 1 4 C0.67 3.67 0.34 3.34 0 3 C-3.63 3 -7.26 3 -11 3 Z " fill="#CE3C32" transform="translate(238,106)"/>
<path d="M0 0 C6.13807552 -0.07439398 12.27588608 -0.12871769 18.41430664 -0.16479492 C20.5006162 -0.17984159 22.58689433 -0.20028382 24.6730957 -0.22631836 C27.67927831 -0.26288295 30.68504112 -0.2797679 33.69140625 -0.29296875 C34.61772354 -0.30845261 35.54404083 -0.32393646 36.49842834 -0.33988953 C43.12592137 -0.34159531 47.77389643 0.67003631 53.25 4.625 C58.03374286 11.11722245 58.45852999 18.70505066 58.43359375 26.51171875 C58.4388356 27.4835762 58.44407745 28.45543365 58.44947815 29.45674133 C58.4558614 31.49629771 58.4546097 33.53589108 58.44604492 35.57543945 C58.43749416 38.68962846 58.46641389 41.80200535 58.49804688 44.91601562 C58.49965819 46.90624945 58.49908269 48.89648651 58.49609375 50.88671875 C58.51294472 52.27439705 58.51294472 52.27439705 58.53013611 53.69010925 C58.46858544 59.40777973 57.79681211 62.63988351 54 67 C51.75 67.875 51.75 67.875 50 68 C49.505 69.98 49.505 69.98 49 72 C49 70.02 49 68.04 49 66 C49.66 66 50.32 66 51 66 C51.495 64.515 51.495 64.515 52 63 C53.0055896 62.43249023 53.0055896 62.43249023 54.03149414 61.85351562 C56.41124719 60.00460738 56.41124719 60.00460738 56.50170898 56.16210938 C56.52140031 54.55610921 56.51796325 52.94972198 56.49609375 51.34375 C56.4982766 50.05748718 56.4982766 50.05748718 56.50050354 48.74523926 C56.49884259 46.92615371 56.48725931 45.10705439 56.46655273 43.28808594 C56.43789372 40.53778365 56.44588025 37.78944614 56.45898438 35.0390625 C56.61301757 19.83085818 56.61301757 19.83085818 51 6 C45.74074357 2.49882016 40.88900135 2.5301267 34.7890625 2.48828125 C33.82092621 2.47033005 32.85278992 2.45237885 31.85531616 2.43388367 C28.77858773 2.37992205 25.7020132 2.34593011 22.625 2.3125 C20.53253074 2.27931447 18.44008174 2.24482367 16.34765625 2.20898438 C11.23188211 2.12420354 6.11615249 2.05732472 1 2 C1 4.31 1 6.62 1 9 C0.67 9 0.34 9 0 9 C0 6.03 0 3.06 0 0 Z " fill="#B7453F" transform="translate(204,87)"/>
<path d="M0 0 C0.66 0 1.32 0 2 0 C3.2401806 2.48036121 3.14456526 4.17098512 3.17358398 6.94604492 C3.18707382 7.97859909 3.20056366 9.01115326 3.21446228 10.07499695 C3.22490067 11.19880264 3.23533905 12.32260834 3.24609375 13.48046875 C3.27907756 15.8665395 3.31228832 18.25260712 3.34570312 20.63867188 C3.3927791 24.39474965 3.43711237 28.15081918 3.47680664 31.90698242 C3.58922977 50.2882314 3.58922977 50.2882314 5.77758789 68.5012207 C5.85098389 69.32581787 5.92437988 70.15041504 6 71 C4 73 4 73 1.56982422 73.22705078 C0.5748291 73.21657715 -0.42016602 73.20610352 -1.4453125 73.1953125 C-2.52167969 73.18886719 -3.59804688 73.18242187 -4.70703125 73.17578125 C-5.83496094 73.15902344 -6.96289062 73.14226562 -8.125 73.125 C-9.82849609 73.11146484 -9.82849609 73.11146484 -11.56640625 73.09765625 C-14.37781299 73.07403098 -17.18880298 73.04109013 -20 73 C-20 72.34 -20 71.68 -20 71 C-12.08 71 -4.16 71 4 71 C3.34 70.01 2.68 69.02 2 68 C0.45183695 60.31529079 0.79074064 52.13877512 0.68359375 44.3359375 C0.66281265 43.06271637 0.64203156 41.78949524 0.62062073 40.47769165 C0.5666794 37.12741131 0.51632356 33.77711774 0.46777344 30.42675781 C0.41712487 26.99409205 0.36166746 23.56150413 0.30664062 20.12890625 C0.20004312 13.41933325 0.09817975 6.70970118 0 0 Z " fill="#FBCFCA" transform="translate(550,164)"/>
<path d="M0 0 C7.92 0 15.84 0 24 0 C24 0.99 24 1.98 24 3 C23.42403076 2.83773926 22.84806152 2.67547852 22.25463867 2.50830078 C20.0606587 2.0136753 18.16885182 1.87088153 15.92578125 1.8671875 C15.17619141 1.86589844 14.42660156 1.86460938 13.65429688 1.86328125 C12.88150391 1.86714844 12.10871094 1.87101562 11.3125 1.875 C10.52810547 1.87113281 9.74371094 1.86726563 8.93554688 1.86328125 C5.1624953 1.50479259 5.1624953 1.50479259 2 3 C1.89124357 4.87259114 1.85311034 6.74930281 1.84178162 8.62501526 C1.82709839 10.45715576 1.82709839 10.45715576 1.81211853 12.3263092 C1.80621358 13.69222983 1.80040318 15.05815087 1.79467773 16.42407227 C1.78510453 17.85277595 1.77509479 19.28147677 1.76467896 20.71017456 C1.73756333 24.60046887 1.71658995 28.49077539 1.69667697 32.38111234 C1.67485833 36.44240644 1.64744954 40.50366261 1.62062073 44.56492615 C1.57063792 52.26076182 1.5257199 59.95661848 1.48259836 67.65249532 C1.43327364 76.41174807 1.3783379 85.17096278 1.32291877 93.93017876 C1.20901298 111.95341721 1.10219276 129.97669153 1 148 C0.67 148 0.34 148 0 148 C0 99.16 0 50.32 0 0 Z " fill="#BA5047" transform="translate(301,87)"/>
<path d="M0 0 C0.33 0 0.66 0 1 0 C1 7.26 1 14.52 1 22 C-9.89 22.495 -9.89 22.495 -21 23 C-21.33 35.54 -21.66 48.08 -22 61 C-22.33 61 -22.66 61 -23 61 C-24.48610634 54.80430779 -24.18600198 48.50093194 -24.18530273 42.1706543 C-24.18749651 39.94105135 -24.2057006 37.71193793 -24.22460938 35.48242188 C-24.22754246 34.05989752 -24.22952782 32.63737082 -24.23046875 31.21484375 C-24.23457764 29.92698975 -24.23868652 28.63913574 -24.24291992 27.31225586 C-24 24 -24 24 -22 20 C-15.4 20 -8.8 20 -2 20 C-2.07905744 14.16607311 -2.07905744 14.16607311 -2.18017578 8.33251953 C-2.1851709 7.60661621 -2.19016602 6.88071289 -2.1953125 6.1328125 C-2.20578613 5.38918457 -2.21625977 4.64555664 -2.22705078 3.87939453 C-2 2 -2 2 0 0 Z " fill="#CD3B2E" transform="translate(421,87)"/>
<path d="M0 0 C0 0.99 0 1.98 0 3 C-3 4 -3 4 -12 3 C-12.33 43.92 -12.66 84.84 -13 127 C-13.33 127 -13.66 127 -14 127 C-14.02332902 110.71929697 -14.04097919 94.43859933 -14.05181217 78.15788364 C-14.05697512 70.59898381 -14.0640178 63.04009435 -14.07543945 55.48120117 C-14.08538632 48.89520334 -14.09185343 42.30921302 -14.09408849 35.72320789 C-14.0953956 32.23386929 -14.09848142 28.74455216 -14.10573006 25.25522041 C-14.11374398 21.36618768 -14.11399114 17.47717622 -14.11352539 13.58813477 C-14.11712067 12.42288773 -14.12071594 11.25764069 -14.12442017 10.05708313 C-14.1230455 9.00393921 -14.12167084 7.95079529 -14.12025452 6.86573792 C-14.12163721 5.48443113 -14.12163721 5.48443113 -14.12304783 4.07521915 C-14 2 -14 2 -13 1 C-10.81707226 0.76518307 -8.62796826 0.58636677 -6.4375 0.4375 C-4.64119141 0.31181641 -4.64119141 0.31181641 -2.80859375 0.18359375 C-1.88175781 0.12300781 -0.95492188 0.06242187 0 0 Z " fill="#FFCFCC" transform="translate(484,108)"/>
<path d="M0 0 C1.38294718 0.01329757 2.76582404 0.03715018 4.1484375 0.0703125 C4.85484375 0.07933594 5.56125 0.08835938 6.2890625 0.09765625 C8.03399848 0.12123647 9.77876045 0.15710789 11.5234375 0.1953125 C12.88044397 2.90932544 12.6358236 5.04377566 12.62109375 8.078125 C12.61787109 9.24472656 12.61464844 10.41132813 12.61132812 11.61328125 C12.59875977 13.44826172 12.59875977 13.44826172 12.5859375 15.3203125 C12.58142578 16.55136719 12.57691406 17.78242188 12.57226562 19.05078125 C12.5604508 22.09900642 12.54397778 25.14713564 12.5234375 28.1953125 C12.1934375 28.1953125 11.8634375 28.1953125 11.5234375 28.1953125 C10.5334375 15.3253125 10.5334375 15.3253125 9.5234375 2.1953125 C5.5634375 2.1953125 1.6034375 2.1953125 -2.4765625 2.1953125 C-3.22821852 6.96471709 -3.64801574 11.61654168 -3.79296875 16.44140625 C-3.81374985 17.09738297 -3.83453094 17.75335968 -3.85594177 18.42921448 C-3.92062188 20.49698796 -3.97993716 22.56487351 -4.0390625 24.6328125 C-4.08232557 26.04623492 -4.12594215 27.45964657 -4.16992188 28.87304688 C-4.27687441 32.31368969 -4.37654931 35.7544332 -4.4765625 39.1953125 C-12.3965625 39.1953125 -20.3165625 39.1953125 -28.4765625 39.1953125 C-28.4765625 33.5853125 -28.4765625 27.9753125 -28.4765625 22.1953125 C-28.1465625 22.1953125 -27.8165625 22.1953125 -27.4765625 22.1953125 C-27.4765625 27.4753125 -27.4765625 32.7553125 -27.4765625 38.1953125 C-17.0815625 37.7003125 -17.0815625 37.7003125 -6.4765625 37.1953125 C-6.42757812 34.69195312 -6.37859375 32.18859375 -6.328125 29.609375 C-6.27414489 27.19004232 -6.21682583 24.77081027 -6.15917969 22.3515625 C-6.12085146 20.66771921 -6.08600538 18.98379295 -6.0546875 17.29980469 C-6.00911963 14.88185944 -5.95111327 12.46448722 -5.890625 10.046875 C-5.87329819 8.91398544 -5.87329819 8.91398544 -5.85562134 7.75820923 C-5.64457718 0.31711108 -5.64457718 0.31711108 0 0 Z " fill="#CB4B42" transform="translate(587.4765625,195.8046875)"/>
<path d="M0 0 C8.25 0 16.5 0 25 0 C25 0.33 25 0.66 25 1 C17.41 1.33 9.82 1.66 2 2 C1.67 22.46 1.34 42.92 1 64 C-1.475 64.495 -1.475 64.495 -4 65 C-7.62399763 61.20985921 -8.19890823 56.77853883 -9.1875 51.8125 C-9.36474609 50.99974609 -9.54199219 50.18699219 -9.72460938 49.34960938 C-10.86773418 43.80170252 -11.16501723 38.66179794 -11 33 C-10.67 33 -10.34 33 -10 33 C-7.39826982 42.5765813 -5.63331791 52.22326017 -4 62 C-2.68 62.33 -1.36 62.66 0 63 C0 42.21 0 21.42 0 0 Z " fill="#BE4C42" transform="translate(342,87)"/>
<path d="M0 0 C3.63 0 7.26 0 11 0 C11 12.21 11 24.42 11 37 C7.04 37 3.08 37 -1 37 C-1.0246501 31.89136104 -1.04283607 26.78275641 -1.05493164 21.67407227 C-1.05997204 19.93480832 -1.0668043 18.19554864 -1.07543945 16.45629883 C-1.08751792 13.96174063 -1.09323108 11.46723827 -1.09765625 8.97265625 C-1.10281754 8.19036148 -1.10797882 7.40806671 -1.11329651 6.60206604 C-1.11349226 4.73432886 -1.06199694 2.86670796 -1 1 C-0.67 0.67 -0.34 0.34 0 0 Z M1 3 C1 13.56 1 24.12 1 35 C3.97 35.33 6.94 35.66 10 36 C10 24.78 10 13.56 10 2 C3.67082039 1.47825081 3.67082039 1.47825081 1 3 Z " fill="#FDDBD5" transform="translate(517,109)"/>
<path d="M0 0 C3.63 0 7.26 0 11 0 C12 1 12 1 12.11352539 4.41821289 C12.11336628 5.93636988 12.10767226 7.45453229 12.09765625 8.97265625 C12.0962413 9.77029892 12.09482635 10.56794159 12.09336853 11.38975525 C12.08775316 13.94737435 12.07519812 16.50490718 12.0625 19.0625 C12.05748698 20.79231645 12.05292373 22.52213426 12.04882812 24.25195312 C12.03777875 28.50133553 12.02050386 32.75065312 12 37 C8.04 37 4.08 37 0 37 C0 24.79 0 12.58 0 0 Z M1 1 C0.9753481 5.82380802 0.95716307 10.64757967 0.94506836 15.47143555 C0.94002826 17.11369464 0.93319622 18.75594923 0.92456055 20.39819336 C0.91248074 22.75375479 0.90676861 25.10925709 0.90234375 27.46484375 C0.89718246 28.20339096 0.89202118 28.94193817 0.88670349 29.7028656 C0.8865075 31.46898088 0.93805281 33.23497146 1 35 C2.11101184 36.33648017 2.11101184 36.33648017 4.9375 36.125 C7.91545728 36.21325664 7.91545728 36.21325664 10 35 C10 24.11 10 13.22 10 2 C7.03 1.67 4.06 1.34 1 1 Z " fill="#FBCFC9" transform="translate(227,109)"/>
<path d="M0 0 C0.33 0 0.66 0 1 0 C1.02903577 3.10414702 1.0468107 6.20825909 1.0625 9.3125 C1.07087891 10.19357422 1.07925781 11.07464844 1.08789062 11.98242188 C1.09111328 12.82998047 1.09433594 13.67753906 1.09765625 14.55078125 C1.10289307 15.33106689 1.10812988 16.11135254 1.11352539 16.9152832 C1 19 1 19 0 22 C0.66 22.33 1.32 22.66 2 23 C1.855625 24.155 1.71125 25.31 1.5625 26.5 C1.47226562 27.23863281 1.38203125 27.97726563 1.2890625 28.73828125 C1.03509532 30.7254028 0.73959137 32.70712322 0.4375 34.6875 C-0.1844028 39.43657592 0.01710608 44.17134312 0.16015625 48.94921875 C0 52 0 52 -0.96484375 54.375 C-2.39445928 58.00028919 -2.45871673 61.44976335 -2.625 65.3125 C-2.74875 67.849375 -2.8725 70.38625 -3 73 C2.61 73 8.22 73 14 73 C14 73.33 14 73.66 14 74 C8.06 74 2.12 74 -4 74 C-4.10881834 60.95388958 -3.96650917 48.01335559 -3 35 C-2.34 35 -1.68 35 -1 35 C-1.01160156 33.8140625 -1.02320313 32.628125 -1.03515625 31.40625 C-1.10502901 20.88712404 -0.81024407 10.48976702 0 0 Z " fill="#D53B2E" transform="translate(564,160)"/>
<path d="M0 0 C1.46657043 -0.00472824 1.46657043 -0.00472824 2.96276855 -0.009552 C4.0262854 -0.00752777 5.08980225 -0.00550354 6.18554688 -0.00341797 C7.81127625 -0.00485306 7.81127625 -0.00485306 9.46984863 -0.00631714 C11.76652077 -0.00699912 14.06319482 -0.00514358 16.35986328 -0.00097656 C19.88904115 0.00437141 23.41809174 -0.00092097 26.94726562 -0.00732422 C29.17252632 -0.00666344 31.39778694 -0.00538228 33.62304688 -0.00341797 C34.68656372 -0.0054422 35.75008057 -0.00746643 36.8458252 -0.009552 C37.82353882 -0.00639984 38.80125244 -0.00324768 39.80859375 0 C40.67383667 0.00079559 41.53907959 0.00159119 42.43054199 0.00241089 C44.40429688 0.12939453 44.40429688 0.12939453 45.40429688 1.12939453 C45.47749309 3.82594307 45.49672225 6.49630911 45.46679688 9.19189453 C45.46228516 9.95050781 45.45777344 10.70912109 45.453125 11.49072266 C45.44130368 13.37031324 45.42336765 15.24986352 45.40429688 17.12939453 C45.07429688 17.12939453 44.74429688 17.12939453 44.40429688 17.12939453 C44.40429688 12.17939453 44.40429688 7.22939453 44.40429688 2.12939453 C28.56429687 2.45939453 12.72429687 2.78939453 -3.59570312 3.12939453 C-3.59570312 8.40939453 -3.59570312 13.68939453 -3.59570312 19.12939453 C-4.25570312 19.12939453 -4.91570312 19.12939453 -5.59570312 19.12939453 C-5.622543 16.1501686 -5.6424635 13.17118158 -5.65820312 10.19189453 C-5.66658203 9.34175781 -5.67496094 8.49162109 -5.68359375 7.61572266 C-5.68681641 6.80683594 -5.69003906 5.99794922 -5.69335938 5.16455078 C-5.69859619 4.41568604 -5.70383301 3.66682129 -5.70922852 2.89526367 C-5.47510628 -0.74646988 -3.08309418 0.00283491 0 0 Z " fill="#D43C30" transform="translate(148.595703125,87.87060546875)"/>
<path d="M0 0 C1.97956441 0.14033111 3.95865141 0.2874123 5.9375 0.4375 C7.03964844 0.51871094 8.14179687 0.59992188 9.27734375 0.68359375 C12 1 12 1 13 2 C13.08865208 4.8843382 13.11521296 7.74462158 13.09765625 10.62890625 C13.0962413 11.49313705 13.09482635 12.35736786 13.09336853 13.24778748 C13.08775239 16.01939292 13.07519719 18.7909188 13.0625 21.5625 C13.05748708 23.4368478 13.05292381 25.31119685 13.04882812 27.18554688 C13.03777772 31.79039544 13.0205023 36.39518421 13 41 C8.81537205 43.09231398 3.67855628 42 -1 42 C-1 29.46 -1 16.92 -1 4 C-0.67 4 -0.34 4 0 4 C0 15.88 0 27.76 0 40 C3.96 40 7.92 40 12 40 C12 27.79 12 15.58 12 3 C8.04 3 4.08 3 0 3 C0 2.01 0 1.02 0 0 Z " fill="#C74237" transform="translate(516,106)"/>
<path d="M0 0 C0.33 0 0.66 0 1 0 C1.39734116 7.47729634 1.78883466 14.95488112 2.17345428 22.43284225 C2.3523419 25.90752583 2.53302524 29.38209395 2.71826172 32.85644531 C3.55523559 48.57993429 4.25348496 64.25107363 4 80 C3.67 80 3.34 80 3 80 C2.07106003 72.42913925 1.67787341 64.90781833 1.39453125 57.2890625 C1.35714844 56.391875 1.31976562 55.4946875 1.28125 54.5703125 C1.25095703 53.76352051 1.22066406 52.95672852 1.18945312 52.12548828 C1.065675 49.81243656 1.065675 49.81243656 0 47 C-0.08687799 45.45029552 -0.1176866 43.89710293 -0.11352539 42.3449707 C-0.11344986 41.40422195 -0.11337433 40.46347321 -0.11329651 39.49421692 C-0.10813522 38.48163315 -0.10297394 37.46904938 -0.09765625 36.42578125 C-0.0962413 35.38681198 -0.09482635 34.34784271 -0.09336853 33.27738953 C-0.08776656 29.95573052 -0.07521372 26.63413867 -0.0625 23.3125 C-0.05748525 21.06184993 -0.0529223 18.81119881 -0.04882812 16.56054688 C-0.03779649 11.04034163 -0.02105643 5.52017561 0 0 Z " fill="#C8534A" transform="translate(615,88)"/>
<path d="M0 0 C4.15560793 8.31121587 3.21605299 18.25702131 3.24023438 27.39355469 C3.25001016 29.62732227 3.28115185 31.86019445 3.3125 34.09375 C3.31902598 35.5338488 3.32427804 36.97395405 3.328125 38.4140625 C3.34214355 40.34693115 3.34214355 40.34693115 3.35644531 42.31884766 C2.8863097 47.17412486 1.52917986 51.02480935 -1.5 54.9375 C-3 56 -3 56 -6 56 C-6.33 57.32 -6.66 58.64 -7 60 C-7 57.69 -7 55.38 -7 53 C-4.525 52.505 -4.525 52.505 -2 52 C-1.67 51.01 -1.34 50.02 -1 49 C-0.34 49 0.32 49 1 49 C0.67 32.83 0.34 16.66 0 0 Z " fill="#D45F55" transform="translate(549,99)"/>
<path d="M0 0 C3.16115776 1.36983503 3.9927092 1.9890638 6 5 C6.27174377 7.48864746 6.27174377 7.48864746 6.30297852 10.49023438 C6.31962051 11.61570679 6.33626251 12.7411792 6.35340881 13.90075684 C6.36182297 15.11944458 6.37023712 16.33813232 6.37890625 17.59375 C6.39590073 18.85078735 6.4128952 20.10782471 6.43040466 21.4029541 C6.47461677 24.75243913 6.51087441 28.10180335 6.54260254 31.45141602 C6.58812398 36.13816964 6.6447671 40.82477088 6.70530701 45.51135254 C6.73690908 48.00340178 6.76390428 50.49551518 6.78553772 52.9876709 C6.79902756 54.1383606 6.8125174 55.28905029 6.82641602 56.47460938 C6.83592789 57.4714978 6.84543976 58.46838623 6.85523987 59.4954834 C7.05540162 64.34122489 7.56091306 69.17004369 8 74 C0.08 74 -7.84 74 -16 74 C-16 73.34 -16 72.68 -16 72 C-8.74 72.33 -1.48 72.66 6 73 C5.67 70.36 5.34 67.72 5 65 C4.89562925 62.86278025 4.82640807 60.7235158 4.79467773 58.58398438 C4.77473251 57.38334351 4.75478729 56.18270264 4.73423767 54.94567871 C4.71752518 53.67454224 4.70081268 52.40340576 4.68359375 51.09375 C4.66298337 49.75996314 4.64198595 48.42618221 4.62062073 47.09240723 C4.56582116 43.60730843 4.51622894 40.12215489 4.46777344 36.63696289 C4.41724785 33.07042658 4.36172507 29.5039683 4.30664062 25.9375 C4.19957544 18.95840116 4.09801915 11.9792316 4 5 C2.68 4.34 1.36 3.68 0 3 C0 2.01 0 1.02 0 0 Z " fill="#C0483C" transform="translate(256,161)"/>
<path d="M0 0 C1.093125 0.00257813 2.18625 0.00515625 3.3125 0.0078125 C4.405625 0.00523437 5.49875 0.00265625 6.625 0 C9.3125 0.1328125 9.3125 0.1328125 10.3125 1.1328125 C10.45365161 3.80340101 10.35497107 6.45713488 10.3125 9.1328125 C9.9825 9.1328125 9.6525 9.1328125 9.3125 9.1328125 C8.6525 7.1528125 7.9925 5.1728125 7.3125 3.1328125 C4.0125 3.1328125 0.7125 3.1328125 -2.6875 3.1328125 C-2.71255615 4.21812256 -2.7376123 5.30343262 -2.76342773 6.42163086 C-2.85733755 10.4341285 -2.95759767 14.44644632 -3.05981445 18.45874023 C-3.10322573 20.19795538 -3.14489612 21.93721485 -3.18481445 23.67651367 C-3.24236768 26.17119738 -3.3061042 28.6656566 -3.37109375 31.16015625 C-3.39616249 32.3335984 -3.39616249 32.3335984 -3.42173767 33.53074646 C-3.57362829 39.01894079 -3.57362829 39.01894079 -4.6875 40.1328125 C-12.38011815 40.57018544 -20.04367729 39.97543863 -27.6875 39.1328125 C-27.6875 38.8028125 -27.6875 38.4728125 -27.6875 38.1328125 C-20.0975 38.1328125 -12.5075 38.1328125 -4.6875 38.1328125 C-4.69910156 36.04839844 -4.71070313 33.96398437 -4.72265625 31.81640625 C-4.73047496 29.77758944 -4.73653568 27.73877435 -4.74243164 25.69995117 C-4.7474327 24.29271689 -4.7542357 22.88548773 -4.76293945 21.47827148 C-4.77519159 19.44513681 -4.7807707 17.41207136 -4.78515625 15.37890625 C-4.79301147 13.54863892 -4.79301147 13.54863892 -4.80102539 11.68139648 C-4.43432776 0.21913829 -4.43432776 0.21913829 0 0 Z " fill="#FBC2BA" transform="translate(587.6875,196.8671875)"/>
<path d="M0 0 C1.65 0 3.3 0 5 0 C5.33 3.63 5.66 7.26 6 11 C4 8 4 8 4 5 C3.01 5.495 3.01 5.495 2 6 C1.67 27.12 1.34 48.24 1 70 C0.67 70 0.34 70 0 70 C0 46.9 0 23.8 0 0 Z " fill="#FFEBE9" transform="translate(325,165)"/>
<path d="M0 0 C0.33 0 0.66 0 1 0 C0.96970703 0.7528125 0.93941406 1.505625 0.90820312 2.28125 C0.24101708 19.19698233 -0.15415273 36.06928731 0 53 C-0.99 53 -1.98 53 -3 53 C-3.06669472 41.98796098 -2.87748166 31.00523722 -2.5 20 C-2.4515835 18.53125787 -2.40340556 17.06250786 -2.35546875 15.59375 C-2.23971031 12.06240545 -2.12078988 8.53117647 -2 5 C-1.34 5 -0.68 5 0 5 C0 3.35 0 1.7 0 0 Z " fill="#CB4436" transform="translate(587,123)"/>
<path d="M0 0 C4.14533026 6.21799538 4.31869115 11.97715434 4.3359375 19.21875 C4.3425943 20.19485229 4.3492511 21.17095459 4.35610962 22.17663574 C4.36620496 24.23411177 4.37092761 26.29162033 4.37060547 28.34912109 C4.37498578 31.48980639 4.41135846 34.62909356 4.44921875 37.76953125 C4.45508619 39.77343272 4.45905607 41.77734083 4.4609375 43.78125 C4.47530853 44.71578003 4.48967957 45.65031006 4.50448608 46.61315918 C4.46431802 52.36501494 3.82952718 55.61884382 0 60 C-2.25 60.875 -2.25 60.875 -4 61 C-4.33 62.32 -4.66 63.64 -5 65 C-5 63.02 -5 61.04 -5 59 C-4.34 59 -3.68 59 -3 59 C-2.67 58.01 -2.34 57.02 -2 56 C-1.32888184 55.62311035 -0.65776367 55.2462207 0.03369141 54.85791016 C2.4162921 53.00094431 2.4162921 53.00094431 2.48583984 49.13037109 C2.49875119 47.51142343 2.48892386 45.89219474 2.4609375 44.2734375 C2.46002106 43.41118561 2.45910461 42.54893372 2.4581604 41.66055298 C2.45211611 39.83305369 2.43634528 38.00556469 2.41162109 36.17822266 C2.37540754 33.40619577 2.37059985 30.63551862 2.37109375 27.86328125 C2.36125042 26.08332197 2.34958816 24.30337165 2.3359375 22.5234375 C2.33371185 21.70434906 2.33148621 20.88526062 2.32919312 20.04135132 C2.25051124 15.16698712 1.65217052 10.74642651 0.4256897 6.02456665 C0 4 0 4 0 0 Z " fill="#C7473D" transform="translate(258,94)"/>
<path d="M0 0 C0.66 0 1.32 0 2 0 C3.67966637 6.36411579 4.29678789 12.28626114 4.265625 18.85546875 C4.26753845 19.76073807 4.2694519 20.66600739 4.27142334 21.59870911 C4.27277488 23.49704265 4.26915112 25.39538577 4.26074219 27.29370117 C4.24999015 30.19015252 4.26069192 33.08598904 4.2734375 35.98242188 C4.27211645 37.83593886 4.2695552 39.68945546 4.265625 41.54296875 C4.26967346 42.40246628 4.27372192 43.26196381 4.27789307 44.14750671 C4.23530454 49.62867038 3.48447573 54.03104855 1 59 C-0.98 59 -2.96 59 -5 59 C-4.67 60.32 -4.34 61.64 -4 63 C-4.66 63 -5.32 63 -6 63 C-6.3125 60.6875 -6.3125 60.6875 -6 58 C-5.236875 57.54625 -4.47375 57.0925 -3.6875 56.625 C-0.14748945 54.48452851 0.83373714 51.81891699 2 48 C2.43896391 44.38679407 2.43896391 44.38679407 2.36328125 40.625 C2.36377975 39.93801025 2.36427826 39.25102051 2.36479187 38.54321289 C2.36246475 37.09437152 2.35281721 35.64552507 2.33618164 34.19677734 C2.31285724 32.03313897 2.31559812 29.87076139 2.32226562 27.70703125 C2.30177811 18.31973146 1.47389296 9.27362989 0 0 Z " fill="#FEE8E1" transform="translate(549,97)"/>
<path d="M0 0 C2.81256281 -0.02684312 5.62487241 -0.04676188 8.4375 -0.0625 C9.23994141 -0.07087891 10.04238281 -0.07925781 10.86914062 -0.08789062 C12.91295221 -0.0965143 14.95683902 -0.0522815 17 0 C18 1 18 1 18.11352539 3.04125977 C18.10828857 3.91580811 18.10305176 4.79035645 18.09765625 5.69140625 C18.09443359 6.63564453 18.09121094 7.57988281 18.08789062 8.55273438 C18.07951172 9.54595703 18.07113281 10.53917969 18.0625 11.5625 C18.05798828 12.55958984 18.05347656 13.55667969 18.04882812 14.58398438 C18.03700023 17.05601487 18.01906415 19.52801472 18 22 C12.06 22 6.12 22 0 22 C0 21.67 0 21.34 0 21 C5.28 21 10.56 21 16 21 C16 14.73 16 8.46 16 2 C11.05 2 6.1 2 1 2 C0.67 1.34 0.34 0.68 0 0 Z " fill="#C0483F" transform="translate(400,150)"/>
<path d="M0 0 C0.33 0 0.66 0 1 0 C1 20.46 1 40.92 1 62 C-0.65 61.67 -2.3 61.34 -4 61 C-4 59.35 -4 57.7 -4 56 C-3.01 56.33 -2.02 56.66 -1 57 C-0.67 38.19 -0.34 19.38 0 0 Z " fill="#FED4D1" transform="translate(341,88)"/>
<path d="M0 0 C0.33 0 0.66 0 1 0 C1.84681133 5.08086796 2.09038099 9.84828377 2 15 C-0.85160391 15.81434143 -3.36626131 16.11881242 -6.328125 16.09765625 C-7.12734375 16.09443359 -7.9265625 16.09121094 -8.75 16.08789062 C-9.575 16.07951172 -10.4 16.07113281 -11.25 16.0625 C-12.09046875 16.05798828 -12.9309375 16.05347656 -13.796875 16.04882812 C-15.86461401 16.03707961 -17.93231624 16.01914522 -20 16 C-20 12.37 -20 8.74 -20 5 C-19.34 5 -18.68 5 -18 5 C-18 7.97 -18 10.94 -18 14 C-12.06 14 -6.12 14 0 14 C0 9.38 0 4.76 0 0 Z " fill="#D13C31" transform="translate(620,219)"/>
<path d="M0 0 C3.71599191 -0.20086443 4.77208445 -0.1519437 8 2 C8.2487793 4.98095703 8.2487793 4.98095703 8.07421875 8.7578125 C8.04777786 9.42086395 8.02133698 10.08391541 7.99409485 10.76705933 C7.90623748 12.88727985 7.79713011 15.00580447 7.6875 17.125 C7.62425045 18.56113692 7.56238406 19.99733547 7.50195312 21.43359375 C7.3506859 24.95658582 7.1803457 28.47836332 7 32 C6.67 32 6.34 32 6 32 C5.67 22.1 5.34 12.2 5 2 C3.68 2 2.36 2 1 2 C1 7.28 1 12.56 1 18 C-1 16 -1 16 -1.23046875 12.8125 C-1.21628906 11.554375 -1.20210937 10.29625 -1.1875 9 C-1.18105469 7.741875 -1.17460938 6.48375 -1.16796875 5.1875 C-1 2 -1 2 0 0 Z " fill="#D15B51" transform="translate(588,107)"/>
<path d="M0 0 C0.33 0 0.66 0 1 0 C1 11.88 1 23.76 1 36 C5.29 36 9.58 36 14 36 C12 39 12 39 9.6875 39.58203125 C8.800625 39.65808594 7.91375 39.73414063 7 39.8125 C6.113125 39.90144531 5.22625 39.99039063 4.3125 40.08203125 C2 40 2 40 0 38 C-0.17532289 35.13111419 -0.23137614 32.36007355 -0.1953125 29.4921875 C-0.1924826 28.65156769 -0.18965271 27.81094788 -0.18673706 26.94485474 C-0.1755243 24.25475954 -0.15041803 21.5649949 -0.125 18.875 C-0.1149716 17.05339022 -0.10584551 15.23177523 -0.09765625 13.41015625 C-0.07558142 8.93997642 -0.04104434 4.47004429 0 0 Z " fill="#CE4F46" transform="translate(226,110)"/>
<path d="M0 0 C2.97286409 2.39747104 3.92518553 3.62592765 4.6875 7.4375 C4.790625 8.613125 4.89375 9.78875 5 11 C5.53692299 13.89035181 6.16440174 16.75608523 6.7890625 19.62890625 C7.06786577 20.9400707 7.34650852 22.25126929 7.625 23.5625 C7.77195312 24.22185547 7.91890625 24.88121094 8.0703125 25.56054688 C8.78798222 28.99363041 9.2712907 31.66921837 8 35 C7.49255577 33.10614563 6.99435426 31.20981334 6.5 29.3125 C6.2215625 28.25675781 5.943125 27.20101562 5.65625 26.11328125 C5.0608285 23.28857328 4.87213508 20.87163292 5 18 C4.34 18 3.68 18 3 18 C2.49490792 15.75113762 1.99610821 13.50086131 1.5 11.25 C1.2215625 9.99703125 0.943125 8.7440625 0.65625 7.453125 C0 4 0 4 0 0 Z " fill="#D53E34" transform="translate(337,197)"/>
<path d="M0 0 C1.32 0 2.64 0 4 0 C5.10228696 4.40914783 5.07654536 8.48382401 5 13 C3 11 3 11 2.8046875 9.0546875 C2.90234375 6.02734375 2.90234375 6.02734375 3 3 C2.34 3 1.68 3 1 3 C1.01160156 4.19238281 1.02320313 5.38476562 1.03515625 6.61328125 C1.04453592 8.17968594 1.05363593 9.74609231 1.0625 11.3125 C1.07087891 12.09818359 1.07925781 12.88386719 1.08789062 13.69335938 C1.09111328 14.45068359 1.09433594 15.20800781 1.09765625 15.98828125 C1.10289307 16.68477783 1.10812988 17.38127441 1.11352539 18.09887695 C1 20 1 20 0 23 C-0.22718496 25.56634861 -0.41608184 28.11678107 -0.5625 30.6875 C-0.60568359 31.38939453 -0.64886719 32.09128906 -0.69335938 32.81445312 C-0.7991736 34.54275206 -0.90006581 36.2713511 -1 38 C-1.33 38 -1.66 38 -2 38 C-2.0270817 35.27076612 -2.04687847 32.54180363 -2.0625 29.8125 C-2.07506836 28.65911133 -2.07506836 28.65911133 -2.08789062 27.48242188 C-2.10506448 23.48091368 -1.84403652 19.92228736 -1 16 C-0.74068935 13.23318055 -0.58875008 10.46207115 -0.4375 7.6875 C-0.39431641 6.94693359 -0.35113281 6.20636719 -0.30664062 5.44335938 C-0.20129568 3.62908536 -0.10021684 1.8145645 0 0 Z " fill="#FBD1C9" transform="translate(589,109)"/>
<path d="M0 0 C0.33 0 0.66 0 1 0 C1 5.28 1 10.56 1 16 C11.395 15.505 11.395 15.505 22 15 C22.33 10.71 22.66 6.42 23 2 C23.33 2 23.66 2 24 2 C24 6.95 24 11.9 24 17 C16.08 17 8.16 17 0 17 C0 11.39 0 5.78 0 0 Z " fill="#C2524A" transform="translate(559,218)"/>
<path d="M0 0 C0.99 0.495 0.99 0.495 2 1 C2.79749068 3.75660928 3.4666254 6.44871096 4.0625 9.25 C4.2387793 10.05743652 4.41505859 10.86487305 4.59667969 11.69677734 C6.01220238 18.45730303 6.75584478 25.09040731 7 32 C5.02935554 29.04403331 4.45575526 27.29147073 3.7109375 23.88671875 C3.49179687 22.88576172 3.27265625 21.88480469 3.046875 20.85351562 C2.71429688 19.28633789 2.71429688 19.28633789 2.375 17.6875 C2.14554687 16.65431641 1.91609375 15.62113281 1.6796875 14.55664062 C0.62068797 9.64300885 -0.3309039 5.05934646 0 0 Z " fill="#C94F45" transform="translate(330,165)"/>
<path d="M0 0 C0.33 0 0.66 0 1 0 C1 7.26 1 14.52 1 22 C0.67 21.34 0.34 20.68 0 20 C-0.66 20 -1.32 20 -2 20 C-2.05379226 17.04142591 -2.09357093 14.08382279 -2.125 11.125 C-2.14175781 10.28324219 -2.15851563 9.44148438 -2.17578125 8.57421875 C-2.18222656 7.76855469 -2.18867188 6.96289062 -2.1953125 6.1328125 C-2.21102295 5.01737061 -2.21102295 5.01737061 -2.22705078 3.87939453 C-2 2 -2 2 0 0 Z " fill="#DB5E56" transform="translate(421,87)"/>
<path d="M0 0 C1.94544548 2.91816822 2.44291867 4.39709766 3.0703125 7.74609375 C3.24433594 8.66583984 3.41835938 9.58558594 3.59765625 10.53320312 C3.85869141 11.97083008 3.85869141 11.97083008 4.125 13.4375 C4.30675781 14.39205078 4.48851562 15.34660156 4.67578125 16.33007812 C5.41991028 20.32767355 6 23.91547871 6 28 C5.34 28 4.68 28 4 28 C2.01902431 23.1135933 1.59025029 18.49745844 1.24609375 13.29296875 C1.24662846 11.03742447 1.24662846 11.03742447 0 10 C-0.07205511 8.31391034 -0.08386068 6.62499341 -0.0625 4.9375 C-0.05347656 4.01839844 -0.04445313 3.09929687 -0.03515625 2.15234375 C-0.02355469 1.44207031 -0.01195312 0.73179688 0 0 Z " fill="#C9554D" transform="translate(325,91)"/>
<path d="M0 0 C0.33 0 0.66 0 1 0 C1.56092819 3.60144435 2.09540625 7.20632564 2.625 10.8125 C2.78484375 11.83666016 2.9446875 12.86082031 3.109375 13.91601562 C3.32207031 15.39038086 3.32207031 15.39038086 3.5390625 16.89453125 C3.67521973 17.80050049 3.81137695 18.70646973 3.95166016 19.63989258 C4 22 4 22 2 25 C1.34 25 0.68 25 0 25 C0 16.75 0 8.5 0 0 Z " fill="#CF4A3D" transform="translate(596,151)"/>
<path d="M0 0 C0.99 0.495 0.99 0.495 2 1 C2.33 7.27 2.66 13.54 3 20 C2.01 20.33 1.02 20.66 0 21 C0 14.07 0 7.14 0 0 Z " fill="#F6C4BF" transform="translate(195,87)"/>
<path d="M0 0 C0.33 0 0.66 0 1 0 C3.15721701 7.47321608 4.46530864 14.21038876 4 22 C-0.31545118 15.52682323 -0.24392462 7.56166317 0 0 Z " fill="#D04F45" transform="translate(331,120)"/>
<path d="M0 0 C1.65 0 3.3 0 5 0 C4.2733313 0.82226074 4.2733313 0.82226074 3.53198242 1.66113281 C1.69995973 4.45806944 1.58046773 6.10316177 1.48828125 9.421875 C1.45283203 10.44667969 1.41738281 11.47148438 1.38085938 12.52734375 C1.35830078 13.59082031 1.33574219 14.65429688 1.3125 15.75 C1.27833984 16.82894531 1.24417969 17.90789062 1.20898438 19.01953125 C1.12659337 21.67958377 1.05741355 24.33931035 1 27 C0.67 27 0.34 27 0 27 C0 18.09 0 9.18 0 0 Z " fill="#FFF5F2" transform="translate(228,110)"/>
<path d="M0 0 C3 2 3 2 3.73046875 4.5390625 C4.60293156 10.43005071 5.22907582 16.04402864 5 22 C4.67 22 4.34 22 4 22 C3.32838005 18.89688362 2.66356325 15.79234832 2 12.6875 C1.80921875 11.80642578 1.6184375 10.92535156 1.421875 10.01757812 C1.24140625 9.17001953 1.0609375 8.32246094 0.875 7.44921875 C0.70742188 6.66893311 0.53984375 5.88864746 0.3671875 5.0847168 C0 3 0 3 0 0 Z " fill="#FDE2DA" transform="translate(325,88)"/>
<path d="M0 0 C1.65 0 3.3 0 5 0 C5.33 3.63 5.66 7.26 6 11 C4 8 4 8 4 5 C3.01 5.33 2.02 5.66 1 6 C0.67 4.02 0.34 2.04 0 0 Z " fill="#FDDFD5" transform="translate(325,165)"/>
<path d="M0 0 C0.33 0 0.66 0 1 0 C1.0825 0.78375 1.165 1.5675 1.25 2.375 C1.4975 3.24125 1.745 4.1075 2 5 C3.93330603 6.09166275 3.93330603 6.09166275 6 7 C8.0683099 9.99904936 8.19927643 12.41302423 8 16 C7.5978125 15.1028125 7.5978125 15.1028125 7.1875 14.1875 C6.1106021 11.95672092 6.1106021 11.95672092 4.375 10.375 C3.92125 9.92125 3.4675 9.4675 3 9 C3 8.34 3 7.68 3 7 C1.68 6.67 0.36 6.34 -1 6 C-1.042721 4.33388095 -1.04063832 2.66617115 -1 1 C-0.67 0.67 -0.34 0.34 0 0 Z " fill="#D53C31" transform="translate(541,154)"/>
<path d="M0 0 C0.33 0 0.66 0 1 0 C1.33 4.62 1.66 9.24 2 14 C5.63 14.33 9.26 14.66 13 15 C13 15.33 13 15.66 13 16 C8.71 16 4.42 16 0 16 C-0.97504245 12.09983019 -0.94810969 9.69178796 -0.5625 5.75 C-0.46066406 4.67234375 -0.35882812 3.5946875 -0.25390625 2.484375 C-0.17011719 1.66453125 -0.08632813 0.8446875 0 0 Z " fill="#FFEFEB" transform="translate(558,221)"/>
<path d="M0 0 C0.33 0 0.66 0 1 0 C1 8.25 1 16.5 1 25 C-1.47368421 20.05263158 -1.47368421 20.05263158 -2 17 C-1.67 16.67 -1.34 16.34 -1 16 C-0.76321284 13.30764224 -0.57801975 10.63501844 -0.4375 7.9375 C-0.39431641 7.17888672 -0.35113281 6.42027344 -0.30664062 5.63867188 C-0.20026367 3.75934562 -0.09960066 1.87969756 0 0 Z " fill="#D93A2B" transform="translate(581,203)"/>
<path d="M0 0 C0.33 0 0.66 0 1 0 C1.27714844 1.19238281 1.55429687 2.38476562 1.83984375 3.61328125 C2.20565523 5.17970477 2.57154471 6.74611007 2.9375 8.3125 C3.11990234 9.09818359 3.30230469 9.88386719 3.49023438 10.69335938 C3.66748047 11.45068359 3.84472656 12.20800781 4.02734375 12.98828125 C4.18968506 13.68477783 4.35202637 14.38127441 4.51928711 15.09887695 C4.93765565 16.7534406 5.46031369 18.38094108 6 20 C5.01 20 4.02 20 3 20 C2.49219106 17.79344925 1.99408635 15.58466395 1.5 13.375 C1.08234375 11.53035156 1.08234375 11.53035156 0.65625 9.6484375 C0.05908379 6.32847772 -0.12409534 3.36091549 0 0 Z " fill="#C75850" transform="translate(341,215)"/>
<path d="M0 0 C0 0.99 0 1.98 0 3 C-3.09478879 4.03159626 -4.52631393 3.97482862 -7.6875 3.5625 C-8.49574219 3.46066406 -9.30398438 3.35882813 -10.13671875 3.25390625 C-10.75160156 3.17011719 -11.36648438 3.08632812 -12 3 C-12.33 3.66 -12.66 4.32 -13 5 C-13 3.68 -13 2.36 -13 1 C-6.565 0.505 -6.565 0.505 0 0 Z " fill="#FEDCD7" transform="translate(484,108)"/>
<path d="M0 0 C7.26 0 14.52 0 22 0 C22 0.99 22 1.98 22 3 C21.42330566 2.83773926 20.84661133 2.67547852 20.25244141 2.50830078 C18.07018411 2.01583821 16.19184112 1.87089596 13.9609375 1.8671875 C13.21585937 1.86589844 12.47078125 1.86460938 11.703125 1.86328125 C10.93484375 1.86714844 10.1665625 1.87101562 9.375 1.875 C8.59898437 1.87113281 7.82296875 1.86726563 7.0234375 1.86328125 C2.87930621 1.76840575 2.87930621 1.76840575 -1 3 C-0.67 2.01 -0.34 1.02 0 0 Z " fill="#AE483F" transform="translate(303,87)"/>
<path d="M0 0 C3.9341561 5.90123415 4.27522305 11.11942374 4 18 C3.67 18 3.34 18 3 18 C2.49490792 15.75113762 1.99610821 13.50086131 1.5 11.25 C1.2215625 9.99703125 0.943125 8.7440625 0.65625 7.453125 C0 4 0 4 0 0 Z " fill="#C9574C" transform="translate(258,94)"/>
<path d="M0 0 C1.98 0.66 3.96 1.32 6 2 C5.67 2.66 5.34 3.32 5 4 C-2.26 3.67 -9.52 3.34 -17 3 C-17 2.67 -17 2.34 -17 2 C-15.85660156 1.93941406 -14.71320313 1.87882813 -13.53515625 1.81640625 C-12.04425695 1.73201572 -10.55337225 1.64736698 -9.0625 1.5625 C-8.30775391 1.52318359 -7.55300781 1.48386719 -6.77539062 1.44335938 C-3.08055813 1.55961976 -3.08055813 1.55961976 0 0 Z " fill="#FFF2EC" transform="translate(418,210)"/>
<path d="M0 0 C2 1 2 1 3.125 4.125 C3.97755199 7.90058738 4.15729024 11.14638912 4 15 C3.67 13.68 3.34 12.36 3 11 C2.34 11 1.68 11 1 11 C0.67 7.37 0.34 3.74 0 0 Z " fill="#CD453B" transform="translate(330,165)"/>
<path d="M0 0 C0.33 0 0.66 0 1 0 C1.66 5.28 2.32 10.56 3 16 C2.34 16.33 1.68 16.66 1 17 C-0.18681726 13.43954823 -0.09689832 10.56191663 -0.0625 6.8125 C-0.05347656 5.54019531 -0.04445313 4.26789063 -0.03515625 2.95703125 C-0.02355469 1.98121094 -0.01195312 1.00539063 0 0 Z " fill="#CF4337" transform="translate(615,121)"/>
<path d="M0 0 C2.02350324 3.03525486 2.32124018 4.19426202 2.625 7.6875 C2.69976562 8.49574219 2.77453125 9.30398437 2.8515625 10.13671875 C2.90054687 10.75160156 2.94953125 11.36648437 3 12 C2.34 12 1.68 12 1 12 C-0.41404314 8.19975907 -1.34892324 5.07077118 -1 1 C-0.67 0.67 -0.34 0.34 0 0 Z " fill="#CD483E" transform="translate(328,107)"/>
<path d="M0 0 C5.37656087 -0.27338445 8.56699758 -0.38994303 13 3 C13.66 3.66 14.32 4.32 15 5 C14.67 5.99 14.34 6.98 14 8 C13.34 7.01 12.68 6.02 12 5 C8.03644997 2.65790225 4.56146063 1.54303103 0 1 C0 0.67 0 0.34 0 0 Z " fill="#C2463C" transform="translate(243,88)"/>
<path d="M0 0 C3.16115776 1.36983503 3.9927092 1.9890638 6 5 C6.25760279 7.69452521 6.08900053 10.28548375 6 13 C5.67 13 5.34 13 5 13 C4.87625 11.081875 4.87625 11.081875 4.75 9.125 C4.54130069 6.94666582 4.54130069 6.94666582 4 5 C2.07935207 3.4100567 2.07935207 3.4100567 0 3 C0 2.01 0 1.02 0 0 Z " fill="#CB554C" transform="translate(256,161)"/>
<path d="M0 0 C0.33 0 0.66 0 1 0 C1.53251766 1.91345327 2.05059483 3.8309295 2.5625 5.75 C2.85253906 6.81734375 3.14257812 7.8846875 3.44140625 8.984375 C3.97098494 11.84335927 3.98370862 13.31597383 3 16 C0.54970669 10.28264895 -0.33266291 6.20970773 0 0 Z " fill="#FBD5CC" transform="translate(331,176)"/>
<path d="M0 0 C0.99 0 1.98 0 3 0 C3.12375 0.804375 3.2475 1.60875 3.375 2.4375 C3.684375 3.7059375 3.684375 3.7059375 4 5 C4.66 5.33 5.32 5.66 6 6 C5.67 6.66 5.34 7.32 5 8 C2 7 2 7 0.3125 3.9375 C-0.120625 2.968125 -0.55375 1.99875 -1 1 C-0.67 0.67 -0.34 0.34 0 0 Z " fill="#D8392D" transform="translate(250,154)"/>
<path d="M0 0 C1.32 0 2.64 0 4 0 C4 0.66 4 1.32 4 2 C4.99 2 5.98 2 7 2 C7.33 3.98 7.66 5.96 8 8 C5.33333333 5.33333333 2.66666667 2.66666667 0 0 Z " fill="#FFE5DD" transform="translate(541,88)"/>
<path d="M0 0 C0.33 0 0.66 0 1 0 C1 1.98 1 3.96 1 6 C-0.32 6 -1.64 6 -3 6 C-3 4.35 -3 2.7 -3 1 C-2.01 1.33 -1.02 1.66 0 2 C0 1.34 0 0.68 0 0 Z " fill="#FBE1DB" transform="translate(340,143)"/>
<path d="M0 0 C1.90401138 1.90401138 2.93520439 3.33425686 3.19921875 6.046875 C3.1886578 8.03233273 3.09915043 10.0169914 3 12 C0.97649676 8.96474514 0.67875982 7.80573798 0.375 4.3125 C0.30023438 3.50425781 0.22546875 2.69601563 0.1484375 1.86328125 C0.09945313 1.24839844 0.05046875 0.63351563 0 0 Z " fill="#FEE3DB" transform="translate(332,120)"/>
<path d="M0 0 C3.63 0 7.26 0 11 0 C11 0.33 11 0.66 11 1 C10.07767578 1.07347656 10.07767578 1.07347656 9.13671875 1.1484375 C8.32847656 1.22320312 7.52023438 1.29796875 6.6875 1.375 C5.48673828 1.47941406 5.48673828 1.47941406 4.26171875 1.5859375 C1.72775559 1.89564426 1.72775559 1.89564426 -1 4 C-0.67 2.68 -0.34 1.36 0 0 Z " fill="#FFF6F2" transform="translate(183,110)"/>
</svg>
